<?xml version="1.0"?>
<svg xmlns:rdf="http://www.w3.org/1999/02/22-rdf-syntax-ns#" xmlns="http://www.w3.org/2000/svg" xmlns:cc="http://creativecommons.org/ns#" xmlns:xlink="http://www.w3.org/1999/xlink" xmlns:dc="http://purl.org/dc/elements/1.1/" id="svg2" viewBox="0 0 329 150" version="1.1">
 <title id="title4372">bike</title>
 <defs id="defs4">
  <filter id="filter3945" color-interpolation-filters="sRGB">
   <feGaussianBlur id="feGaussianBlur3947" stdDeviation="2.5632263"/>
  </filter>
  <linearGradient id="linearGradient3977" y2="488.08" gradientUnits="userSpaceOnUse" x2="-397.14" gradientTransform="matrix(.31094 0 0 .30983 154.81 862.83)" y1="572.36" x1="-348.57">
   <stop id="stop3973" stop-color="#020207" offset="0"/>
   <stop id="stop3975" stop-color="#0e232e" offset="1"/>
  </linearGradient>
  <linearGradient id="linearGradient3999" y2="525.22" gradientUnits="userSpaceOnUse" x2="-94.286" gradientTransform="matrix(.31094 0 0 .30983 154.81 862.83)" y1="462.36" x1="-60">
   <stop id="stop3995" stop-color="#243137" offset="0"/>
   <stop id="stop3997" stop-color="#666" offset="1"/>
  </linearGradient>
  <linearGradient id="linearGradient4007" y2="475.22" gradientUnits="userSpaceOnUse" x2="58.571" gradientTransform="matrix(.31094 0 0 .30983 154.81 862.83)" y1="372.36" x1="-18.571">
   <stop id="stop4003" stop-color="#060606" offset="0"/>
   <stop id="stop4005" stop-color="#0e232e" offset="1"/>
  </linearGradient>
  <linearGradient id="linearGradient4015" y2="346.65" gradientUnits="userSpaceOnUse" x2="282.86" gradientTransform="matrix(.31094 0 0 .30983 154.81 862.83)" y1="372.36" x1="310">
   <stop id="stop4011" stop-color="#cfcfdd" offset="0"/>
   <stop id="stop4013" stop-color="#999" offset="1"/>
  </linearGradient>
  <linearGradient id="linearGradient4023" y2="490.93" gradientUnits="userSpaceOnUse" x2="100" gradientTransform="matrix(.31094 0 0 .30983 154.81 862.83)" y1="428.08" x1="197.14">
   <stop id="stop4019" stop-color="#e6e7ed" offset="0"/>
   <stop id="stop4021" stop-color="#666" offset="1"/>
  </linearGradient>
  <filter id="filter4250" color-interpolation-filters="sRGB">
   <feGaussianBlur id="feGaussianBlur4252" stdDeviation="1.5594348"/>
  </filter>
  <filter id="filter4256" height="1.368" width="1.1929" color-interpolation-filters="sRGB" y="-0.184" x="-.096427">
   <feGaussianBlur id="feGaussianBlur4258" stdDeviation="34.368472"/>
  </filter>
  <linearGradient id="linearGradient4318" y2="209.89" gradientUnits="userSpaceOnUse" x2="-274.76" gradientTransform="matrix(.31094 0 0 .30983 154.81 862.83)" y1="147.27" x1="-187.89">
   <stop id="stop4314" stop-color="#2d2d2d" offset="0"/>
   <stop id="stop4316" stop-color="#2d2d2d" stop-opacity="0" offset="1"/>
  </linearGradient>
  <linearGradient id="linearGradient4320" y2="276.57" gradientUnits="userSpaceOnUse" x2="-369.72" gradientTransform="matrix(.31094 0 0 .30983 154.81 862.83)" y1="258.38" x1="-325.27">
   <stop id="stop4324" stop-color="#ccc" offset="0"/>
   <stop id="stop4326" stop-color="#fff" offset="1"/>
  </linearGradient>
  <linearGradient id="linearGradient4336" y2="274.54" gradientUnits="userSpaceOnUse" x2="-335.37" gradientTransform="matrix(.31094 0 0 .30983 154.81 862.83)" y1="288.69" x1="-365.68">
   <stop id="stop4332" stop-color="#364e59" offset="0"/>
   <stop id="stop4334" stop-color="#364e59" stop-opacity="0" offset="1"/>
  </linearGradient>
 </defs>
 <g id="layer1" transform="translate(0 -902.36)">
  <path id="path4254" opacity=".39512" d="m-208.09 137.16-87.375 74.312-11.625 2.4688-24.625 29.188-1.2188-0.8125s-40.91 35.248-36 55.594c3.4904 14.462 49.219 13.438 49.219 13.438l0.0937-0.21875 23.656 10.906 14.125 20.188 1.7812 1.5938c-38.47 2.4705-76.251 6.1006-103.12 27.938l16.16 3.52c-32.157 20.624-53.312 55.613-53.312 95.312 0 63.418 53.97 114.84 120.56 114.84 66.592 0 120.56-51.426 120.56-114.84 0-16.144-3.4995-31.499-9.8125-45.438l2.125 1.9062 26.25 14.156 2.4688 22.156-0.4375 0.0625-15.312 67.031 37.531 4.6875 12.125-9.0938 4.9688 7 100.09 2.0938 20.188-13.125 6.0625 12.125 127.38-2.875-46.065-28.02c21.742-9.9954 59.928-14.727 82.938-23.344 16.9 52.826 68.223 91.25 128.94 91.25 74.478 0 134.84-57.823 134.84-129.12 0-45.094-24.162-84.785-60.75-107.88l38.188-26.719c4.1239-26.395-12.616-31.083-35.344-38.406l-66.344 44.312c-3.4964-0.26022-7.0275-0.4375-10.594-0.4375-23.607 0-45.796 5.8269-65.094 16.031l-29.75-23.312c6.3896-5.826 12.584-11.704 18.781-17.594l-13.19 0.28 44.562-20.844 75.781-41.406 58.562-48.5-60.594 1.0312-72.719 34.344-13.938 7.3125 82.625-45.719-115.12 22.219s-1.043 8.0969-6.0938 20.219c-4.4649 10.716-8.1442 13.542-2.6562 16.844l-12.5 9.4062-51.531 8.0938-42.406 7.0625h-24.25l-6.0625 14.156 5.0625 3-7.5938-3.3438 2.5312-0.6875 6.0625-13.125 6.0625-13.125s-26.974-50.325-48.188-58.406c-21.213-8.0812-42.539 3.4779-57.875 5.875-34.292 5.36-91.94 19.189-101.03 25.25-9.0914 6.0609-7.0734 10.116-9.0938 14.156-1.8727 3.7453 5.5246 5.695 6.6562 5.9688-6.3002-0.64994-12.58-1.2777-18.781-1.9375-19.423-2.0665-39.071 0.37428-58.594 1-21.563 0.6911-64.625 3.0312-64.625 3.0312l14.938 18.281-20-17.25 9.0938-25.25 44.438-23.25 30.312-6.0625s14.951-17.774 20.562-26.531l6.7188-3.7812-39.406-19.188zm-117.75 109.88 2.5938 0.25-0.6875 1.0312-1.9062-1.2812zm523.34 5.08-36.66 37.32-31.53 0.72 30.28-1.47 37.91-36.57zm-161.44 27.07-35.031 10.93c-0.40691-0.40348-0.81175-0.81961-1.2188-1.2188l36.25-9.7188zm156.22 37.969c5.3934 3.5776 10.34 6.8319 16.188 10.688l-20.47-7.13c1.449-1.179 2.8662-2.3721 4.2812-3.5625zm-15.125 12.031 38.625 12.219c-6.5345 5.0349-12.581 10.62-18.031 16.719-42.563 13.996-83.649 27.591-105.03 34.688l-0.78125-17.25-16.188 5.0625-100-28.312-52.281 75.281-2.25-1.5312-52.75 69.156 18.406-39.844-20.969 3.7188 42.156-16.875s36.376-45.449 39.406-50.5c2.9195-4.8658 29.255-41.185 31.25-43.938l4.0938 3.5312s83.866 25.261 87.906 27.281c0.70845 0.35423-0.63242-2.1864-3.5-6.6562l4.5 4.625c47.82-11.574 79.802-28.406 105.44-47.375zm156.5 33.438c8.1752 3.1569 15.762 7.4519 22.531 12.656-4.5364 6.3557-8.9188 15.322-13.094 24.656-3.7868 1.7006-7.5838 3.408-11.281 5.0312-8.6646-6.7268-19.611-10.903-31.562-11.312-1.0009-1.8072-2.0241-3.6647-3.0312-5.5l36.438-25.531zm35.281 24.625c12.932 14.842 20.719 33.939 20.719 54.781 0 0.13629 0.00062 0.27005 0 0.40625-7.9481 0.40192-18.041 2.679-28.281 5.3438-3.3889-1.6792-6.7632-3.3558-10.062-5.0312-0.30737-11.702-4.84-22.397-12.156-30.812 1.5898-3.6936 3.2673-7.4987 4.9375-11.281 9.4347-4.3051 18.496-8.8105 24.844-13.406zm-77.312 4.8125c-0.17131 0.6616-0.32661 1.3416-0.5 2-1.035 0.13377-2.0786 0.3102-3.0938 0.5l3.5938-2.5zm-591.91 3.5938c0.17159 0.00092 0.35888 0 0.53125 0 18.644 0 35.764 6.1551 49.25 16.469-3.9283 5.4748-7.7224 13.19-11.344 21.219-3.2535 1.4514-6.5104 2.8938-9.6875 4.2812-7.7473-5.983-17.532-9.6985-28.219-10.062-1.552-2.7874-3.0966-5.6414-4.6562-8.5 2.0967-8.4689 3.8488-16.776 4.125-23.406zm-15.5 1.5312c1.9055 6.4992 5.771 14.377 10.031 22.312-0.7155 2.833-1.4207 5.659-2.1562 8.4375-12.196 1.568-22.932 7.5477-30.344 16.156-1.792-0.3118-3.5811-0.64049-5.375-0.96875-6.0618-7.6251-12.227-14.814-17.812-19.125 11.249-13.496 27.286-23.189 45.656-26.812zm535.97 6.75c1.5836 0.73809 3.375 1.4384 5.25 2.0938l19.031 19.031 7.2188-5.0312c-4.0773 7.1367-6.4062 15.305-6.4062 24 0 5.3791 0.89119 10.577 2.5312 15.438-0.93932 0.80735-1.8947 1.5787-2.8438 2.375-11.707-0.16318-23.115 0.13751-31.156 2.0938-1.9259-6.988-2.9688-14.338-2.9688-21.906 0-6.5858 0.80284-12.997 2.2812-19.156 7.0701-4.7524 10.606-8.3909 13-9.1562l-6.1875-9.2812c0.0841-0.16446 0.16483-0.33613 0.25-0.5zm5.9375 9.7812 8.2188 12.344c-4.0527-10.132-5.372-13.254-8.2188-12.344zm-57.625 0.6875c-2.0256 8.8991-3.0938 18.145-3.0938 27.625 0 5.2923 0.35381 10.5 1 15.625-11.85 6.7145-30.607 10.938-49.219 15.875l-42.438 17.188 2.5625 11.562-56.094 26.812 51.5-33.312s-9.6328-0.0212-21.062-0.78125c4.6554-2.4014 49.651-25.613 55.406-27.531 2.9037-0.9679-6.2391-5.185-16.562-9.3125l46.875-4.8125v-9.0938l-7.1562 0.5-44.188-16.281 7-7.5 10 12.156 46.47 11.11s9.2432-15.543 19-29.844zm-407.78 8.2188c11.387 13 18.25 29.714 18.25 47.969 0 0.11941 0.00055 0.25573 0 0.375-6.8886 0.34651-15.599 2.2768-24.469 4.5625-2.8898-1.4254-5.7786-2.8592-8.5938-4.2812-0.27484-10.408-4.3334-19.922-10.875-27.406 1.3682-3.1622 2.8142-6.4182 4.25-9.6562 8.1534-3.713 15.943-7.6058 21.438-11.562zm317.81 13.938 48.438 8.4375-60.312 4.3125 11.875-12.75zm-448.78 0.68c6.4882 3.0081 16.05 5.1662 25.969 7.0312 0.98688 1.2624 1.9892 2.5128 2.9688 3.7812-4.7869 7.0054-7.5938 15.35-7.5938 24.312 0 4.7843 0.81484 9.3953 2.2812 13.719-0.73063 0.62468-1.4806 1.2592-2.2188 1.875-10.164-0.13044-20.044 0.12178-27.031 1.8125-1.6958-6.1207-2.5938-12.559-2.5938-19.188 0-11.982 2.9693-23.297 8.2188-33.344zm731.5 11.719c9.4212 4.6189 18.76 8.8533 26.438 10.844-4.3911 19.885-15.991 37.213-32.062 49.375-5.2617-5.5961-12.93-11.616-21-17.5-0.65774-3.1121-1.316-6.2055-1.9375-9.2812 9.4298-7.6477 16.005-18.384 18-30.562 3.474-0.95738 7.0119-1.9291 10.562-2.875zm-115.94 14c1.2936 0.0225 2.5805 0.0616 3.875 0.0937 5.813 13.563 17.638 24.158 32.344 28.812 0.0989 2.0233 0.20243 4.0343 0.28125 6.0625-6.6625 7.9583-12.941 15.914-16.656 22.812-19.346-7.908-35.143-22.167-44.625-40.031 7.3552-3.6005 16.082-10.432 24.781-17.75zm-490.88 13.938c8.1306 3.9524 16.185 7.5718 22.812 9.2812-3.8664 17.417-14.098 32.598-28.25 43.25-4.5529-4.8168-11.155-9.994-18.125-15.062-0.55779-2.6329-1.096-5.24-1.625-7.8438 8.4314-6.8021 14.31-16.356 16.094-27.188 2.9863-0.81866 6.0438-1.6276 9.0938-2.4375zm571.69 10.062c2.4513 1.7328 4.9131 3.4761 7.375 5.25 2.0878 9.6166 4.4296 18.96 7.4062 26-12.201 5.9761-26.009 9.375-40.656 9.375-6.2446 0-12.335-0.61524-18.219-1.7812 1.2165-7.562 1.1953-17.307 0.84375-27.281 1.4567-1.7302 2.9054-3.4458 4.375-5.1562 3.5739 0.72283 7.2308 1.0938 11.031 1.0938 10.201 0 19.758-2.7511 27.844-7.5zm-674.65 2.28c1.0386 0.0183 2.0852 0.0369 3.125 0.0625 5.1976 12.063 15.789 21.485 28.938 25.625 0.0812 1.6532 0.12249 3.3131 0.1875 4.9688-5.7557 6.8537-11.158 13.715-14.375 19.656-17.035-6.9265-30.932-19.415-39.281-35.062 6.3608-3.0974 13.883-8.9699 21.406-15.25zm372 1.0625c7.1948 1.4615 13.597 2.7688 19.344 3.9688-3.9537-0.39782-7.8813-0.89266-11.5-1.5312-2.2228-0.39227-4.892-1.2562-7.8438-2.4375zm-117.41 9.5-43.438 8.0625 0.6875-1.5312 42.75-6.5312zm-182.69 10.75c2.0722 1.4571 4.1388 2.9482 6.2188 4.4375 1.8151 8.273 3.8605 16.281 6.4375 22.344-10.743 5.2344-22.884 8.2188-35.781 8.2188-5.4985 0-10.851-0.5412-16.031-1.5625 1.053-6.5111 1.0439-14.888 0.75-23.469 1.2096-1.4288 2.4349-2.8672 3.6562-4.2812 3.1955 0.64291 6.4769 1 9.875 1 9.1212 0 17.645-2.4637 24.875-6.6875z" transform="matrix(.32097 -.0060730 0 -.024095 161.63 1052.2)" filter="url(#filter4256)" stroke="#7d7d7c" stroke-linecap="square" stroke-width="5.4489" fill="#0e232e"/>
  <path id="path4181" d="m-208.09 137.16-87.375 74.312-11.625 2.4688-24.625 29.188-1.2188-0.8125s-40.91 35.248-36 55.594c3.4904 14.462 49.219 13.438 49.219 13.438l0.0937-0.21875 23.656 10.906 14.125 20.188 1.7812 1.5938c-38.47 2.4705-76.251 6.1006-103.12 27.938l16.16 3.52c-32.157 20.624-53.312 55.613-53.312 95.312 0 63.418 53.97 114.84 120.56 114.84 66.592 0 120.56-51.426 120.56-114.84 0-16.144-3.4995-31.499-9.8125-45.438l2.125 1.9062 26.25 14.156 2.4688 22.156-0.4375 0.0625-15.312 67.031 37.531 4.6875 12.125-9.0938 4.9688 7 100.09 2.0938 20.188-13.125 6.0625 12.125 127.38-2.875-46.065-28.02c21.742-9.9954 59.928-14.727 82.938-23.344 16.9 52.826 68.223 91.25 128.94 91.25 74.478 0 134.84-57.823 134.84-129.12 0-45.094-24.162-84.785-60.75-107.88l38.188-26.719c4.1239-26.395-12.616-31.083-35.344-38.406l-66.344 44.312c-3.4964-0.26022-7.0275-0.4375-10.594-0.4375-23.607 0-45.796 5.8269-65.094 16.031l-29.75-23.312c6.3896-5.826 12.584-11.704 18.781-17.594l-13.19 0.28 44.562-20.844 75.781-41.406 58.562-48.5-60.594 1.0312-72.719 34.344-13.938 7.3125 82.625-45.719-115.12 22.219s-1.043 8.0969-6.0938 20.219c-4.4649 10.716-8.1442 13.542-2.6562 16.844l-12.5 9.4062-51.531 8.0938-42.406 7.0625h-24.25l-6.0625 14.156 5.0625 3-7.5938-3.3438 2.5312-0.6875 6.0625-13.125 6.0625-13.125s-26.974-50.325-48.188-58.406c-21.213-8.0812-42.539 3.4779-57.875 5.875-34.292 5.36-91.94 19.189-101.03 25.25-9.0914 6.0609-7.0734 10.116-9.0938 14.156-1.8727 3.7453 5.5246 5.695 6.6562 5.9688-6.3002-0.64994-12.58-1.2777-18.781-1.9375-19.423-2.0665-39.071 0.37428-58.594 1-21.563 0.6911-64.625 3.0312-64.625 3.0312l14.938 18.281-20-17.25 9.0938-25.25 44.438-23.25 30.312-6.0625s14.951-17.774 20.562-26.531l6.7188-3.7812-39.406-19.188zm-117.75 109.88 2.5938 0.25-0.6875 1.0312-1.9062-1.2812zm523.34 5.08-36.66 37.32-31.53 0.72 30.28-1.47 37.91-36.57zm-161.44 27.07-35.031 10.93c-0.40691-0.40348-0.81175-0.81961-1.2188-1.2188l36.25-9.7188zm156.22 37.969c5.3934 3.5776 10.34 6.8319 16.188 10.688l-20.47-7.13c1.449-1.179 2.8662-2.3721 4.2812-3.5625zm-15.125 12.031 38.625 12.219c-6.5345 5.0349-12.581 10.62-18.031 16.719-42.563 13.996-83.649 27.591-105.03 34.688l-0.78125-17.25-16.188 5.0625-100-28.312-52.281 75.281-2.25-1.5312-52.75 69.156 18.406-39.844-20.969 3.7188 42.156-16.875s36.376-45.449 39.406-50.5c2.9195-4.8658 29.255-41.185 31.25-43.938l4.0938 3.5312s83.866 25.261 87.906 27.281c0.70845 0.35423-0.63242-2.1864-3.5-6.6562l4.5 4.625c47.82-11.574 79.802-28.406 105.44-47.375zm156.5 33.438c8.1752 3.1569 15.762 7.4519 22.531 12.656-4.5364 6.3557-8.9188 15.322-13.094 24.656-3.7868 1.7006-7.5838 3.408-11.281 5.0312-8.6646-6.7268-19.611-10.903-31.562-11.312-1.0009-1.8072-2.0241-3.6647-3.0312-5.5l36.438-25.531zm35.281 24.625c12.932 14.842 20.719 33.939 20.719 54.781 0 0.13629 0.00062 0.27005 0 0.40625-7.9481 0.40192-18.041 2.679-28.281 5.3438-3.3889-1.6792-6.7632-3.3558-10.062-5.0312-0.30737-11.702-4.84-22.397-12.156-30.812 1.5898-3.6936 3.2673-7.4987 4.9375-11.281 9.4347-4.3051 18.496-8.8105 24.844-13.406zm-77.312 4.8125c-0.17131 0.6616-0.32661 1.3416-0.5 2-1.035 0.13377-2.0786 0.3102-3.0938 0.5l3.5938-2.5zm-591.91 3.5938c0.17159 0.00092 0.35888 0 0.53125 0 18.644 0 35.764 6.1551 49.25 16.469-3.9283 5.4748-7.7224 13.19-11.344 21.219-3.2535 1.4514-6.5104 2.8938-9.6875 4.2812-7.7473-5.983-17.532-9.6985-28.219-10.062-1.552-2.7874-3.0966-5.6414-4.6562-8.5 2.0967-8.4689 3.8488-16.776 4.125-23.406zm-15.5 1.5312c1.9055 6.4992 5.771 14.377 10.031 22.312-0.7155 2.833-1.4207 5.659-2.1562 8.4375-12.196 1.568-22.932 7.5477-30.344 16.156-1.792-0.3118-3.5811-0.64049-5.375-0.96875-6.0618-7.6251-12.227-14.814-17.812-19.125 11.249-13.496 27.286-23.189 45.656-26.812zm535.97 6.75c1.5836 0.73809 3.375 1.4384 5.25 2.0938l19.031 19.031 7.2188-5.0312c-4.0773 7.1367-6.4062 15.305-6.4062 24 0 5.3791 0.89119 10.577 2.5312 15.438-0.93932 0.80735-1.8947 1.5787-2.8438 2.375-11.707-0.16318-23.115 0.13751-31.156 2.0938-1.9259-6.988-2.9688-14.338-2.9688-21.906 0-6.5858 0.80284-12.997 2.2812-19.156 7.0701-4.7524 10.606-8.3909 13-9.1562l-6.1875-9.2812c0.0841-0.16446 0.16483-0.33613 0.25-0.5zm5.9375 9.7812 8.2188 12.344c-4.0527-10.132-5.372-13.254-8.2188-12.344zm-57.625 0.6875c-2.0256 8.8991-3.0938 18.145-3.0938 27.625 0 5.2923 0.35381 10.5 1 15.625-11.85 6.7145-30.607 10.938-49.219 15.875l-42.438 17.188 2.5625 11.562-56.094 26.812 51.5-33.312s-9.6328-0.0212-21.062-0.78125c4.6554-2.4014 49.651-25.613 55.406-27.531 2.9037-0.9679-6.2391-5.185-16.562-9.3125l46.875-4.8125v-9.0938l-7.1562 0.5-44.188-16.281 7-7.5 10 12.156 46.47 11.11s9.2432-15.543 19-29.844zm-407.78 8.2188c11.387 13 18.25 29.714 18.25 47.969 0 0.11941 0.00055 0.25573 0 0.375-6.8886 0.34651-15.599 2.2768-24.469 4.5625-2.8898-1.4254-5.7786-2.8592-8.5938-4.2812-0.27484-10.408-4.3334-19.922-10.875-27.406 1.3682-3.1622 2.8142-6.4182 4.25-9.6562 8.1534-3.713 15.943-7.6058 21.438-11.562zm317.81 13.938 48.438 8.4375-60.312 4.3125 11.875-12.75zm-448.78 0.68c6.4882 3.0081 16.05 5.1662 25.969 7.0312 0.98688 1.2624 1.9892 2.5128 2.9688 3.7812-4.7869 7.0054-7.5938 15.35-7.5938 24.312 0 4.7843 0.81484 9.3953 2.2812 13.719-0.73063 0.62468-1.4806 1.2592-2.2188 1.875-10.164-0.13044-20.044 0.12178-27.031 1.8125-1.6958-6.1207-2.5938-12.559-2.5938-19.188 0-11.982 2.9693-23.297 8.2188-33.344zm731.5 11.719c9.4212 4.6189 18.76 8.8533 26.438 10.844-4.3911 19.885-15.991 37.213-32.062 49.375-5.2617-5.5961-12.93-11.616-21-17.5-0.65774-3.1121-1.316-6.2055-1.9375-9.2812 9.4298-7.6477 16.005-18.384 18-30.562 3.474-0.95738 7.0119-1.9291 10.562-2.875zm-115.94 14c1.2936 0.0225 2.5805 0.0616 3.875 0.0937 5.813 13.563 17.638 24.158 32.344 28.812 0.0989 2.0233 0.20243 4.0343 0.28125 6.0625-6.6625 7.9583-12.941 15.914-16.656 22.812-19.346-7.908-35.143-22.167-44.625-40.031 7.3552-3.6005 16.082-10.432 24.781-17.75zm-490.88 13.938c8.1306 3.9524 16.185 7.5718 22.812 9.2812-3.8664 17.417-14.098 32.598-28.25 43.25-4.5529-4.8168-11.155-9.994-18.125-15.062-0.55779-2.6329-1.096-5.24-1.625-7.8438 8.4314-6.8021 14.31-16.356 16.094-27.188 2.9863-0.81866 6.0438-1.6276 9.0938-2.4375zm571.69 10.062c2.4513 1.7328 4.9131 3.4761 7.375 5.25 2.0878 9.6166 4.4296 18.96 7.4062 26-12.201 5.9761-26.009 9.375-40.656 9.375-6.2446 0-12.335-0.61524-18.219-1.7812 1.2165-7.562 1.1953-17.307 0.84375-27.281 1.4567-1.7302 2.9054-3.4458 4.375-5.1562 3.5739 0.72283 7.2308 1.0938 11.031 1.0938 10.201 0 19.758-2.7511 27.844-7.5zm-674.65 2.28c1.0386 0.0183 2.0852 0.0369 3.125 0.0625 5.1976 12.063 15.789 21.485 28.938 25.625 0.0812 1.6532 0.12249 3.3131 0.1875 4.9688-5.7557 6.8537-11.158 13.715-14.375 19.656-17.035-6.9265-30.932-19.415-39.281-35.062 6.3608-3.0974 13.883-8.9699 21.406-15.25zm372 1.0625c7.1948 1.4615 13.597 2.7688 19.344 3.9688-3.9537-0.39782-7.8813-0.89266-11.5-1.5312-2.2228-0.39227-4.892-1.2562-7.8438-2.4375zm-117.41 9.5-43.438 8.0625 0.6875-1.5312 42.75-6.5312zm-182.69 10.75c2.0722 1.4571 4.1388 2.9482 6.2188 4.4375 1.8151 8.273 3.8605 16.281 6.4375 22.344-10.743 5.2344-22.884 8.2188-35.781 8.2188-5.4985 0-10.851-0.5412-16.031-1.5625 1.053-6.5111 1.0439-14.888 0.75-23.469 1.2096-1.4288 2.4349-2.8672 3.6562-4.2812 3.1955 0.64291 6.4769 1 9.875 1 9.1212 0 17.645-2.4637 24.875-6.6875z" transform="matrix(.31094 0 0 .30983 154.81 862.83)" filter="url(#filter4250)" stroke="#7d7d7c" stroke-linecap="square" stroke-width="1.5438" fill="#666"/>
  <path id="path3951" d="m248.17 961.86c-21.957 0-39.753 16.982-39.753 37.927 0 20.946 17.796 37.927 39.753 37.927s39.753-16.982 39.753-37.927c0-20.946-17.796-37.927-39.753-37.927zm-0.18158 11.413c0.0604 0.00028 0.12073 0 0.18158 0 6.584 0 12.63 2.1834 17.393 5.8317-1.487 2.0759-2.9232 5.0506-4.284 8.11 3.1232-1.4052 6.1549-2.8903 8.2476-4.3999 4.0213 4.5985 6.4421 10.515 6.4421 16.973 0 0.0426 0.00019 0.083 0 0.12535-2.6106 0.13158-5.9593 0.90118-9.3266 1.7871 3.0955 1.5249 6.1962 2.9439 8.7177 3.5953-1.3654 6.1609-4.9702 11.532-9.9676 15.3-1.7378-1.8417-4.3181-3.828-6.9976-5.7586 0.67662 3.1567 1.4364 6.2549 2.4145 8.5595-3.7938 1.8516-8.084 2.9054-12.639 2.9054-1.9417 0-3.8328-0.1926-5.6622-0.5539 0.40137-2.486 0.37455-5.7336 0.24576-9.0193-2.1893 2.5903-4.277 5.2049-5.4913 7.4515-6.0157-2.45-10.929-6.8703-13.878-12.405 2.4015-1.1714 5.27-3.4478 8.1087-5.8422-3.8191-0.066-7.5843 0-10.203 0.6375-0.59887-2.1651-0.91878-4.438-0.91878-6.7828 0-4.2387 1.0521-8.2453 2.9059-11.799 2.4349 1.1309 6.0933 1.9251 9.8288 2.6128-2.2754-2.8948-4.6168-5.6689-6.7199-7.2949 3.9726-4.7742 9.6342-8.208 16.121-9.4896 0.71811 2.4532 2.2233 5.4583 3.8461 8.455 0.8186-3.243 1.5292-6.465 1.6346-8.9984zm-1.6346 8.9984c-0.29143 1.1544-0.57781 2.2995-0.87606 3.4279-4.0212 0.51791-7.5559 2.4869-9.9996 5.3301-0.79048-0.13774-1.5775-0.28223-2.3718-0.4285 0.45819 0.58296 0.90658 1.1614 1.3568 1.7454-1.5783 2.3138-2.4999 5.0663-2.4999 8.0265 0 1.5801 0.26431 3.1078 0.74786 4.5358-0.40285 0.345-0.81185 0.6817-1.2179 1.0242 0.54258 0.01 1.0822 0.018 1.6239 0.031 1.7138 3.9841 5.205 7.0981 9.5403 8.4654 0.0378 0.766 0.066 1.5285 0.0963 2.2993 0.52867-0.6255 1.0499-1.2443 1.5811-1.8603 1.0536 0.2123 2.138 0.324 3.2584 0.324 3.0075 0 5.821-0.8102 8.2049-2.2052 0.86389 0.6085 1.7262 1.223 2.5961 1.8499-0.22941-1.0702-0.44836-2.1323-0.66238-3.1877 2.78-2.2466 4.7216-5.4 5.3096-8.9775 1.1845-0.3252 2.3865-0.6527 3.6003-0.972-1.1526-0.5678-2.2986-1.1368-3.4187-1.7035-0.0907-3.4376-1.422-6.5787-3.5789-9.0508 0.52835-1.2231 1.0776-2.4788 1.6346-3.7311-1.2768 0.57453-2.5565 1.1373-3.8033 1.6827-2.5544-1.9762-5.7817-3.2033-9.3053-3.3235-0.60257-1.0841-1.2118-2.1866-1.8162-3.3026z" stroke="#7d7d7c" stroke-linecap="square" stroke-width=".47918" fill="#666"/>
  <path id="path3949" d="m61.602 975.42c-19.333 0-35.003 14.874-35.003 33.22s15.67 33.22 35.003 33.22 35.003-14.874 35.003-33.22-15.67-33.22-35.003-33.22zm-0.15994 9.9961c0.05354 0.00036 0.10632 0 0.15994 0 5.7973 0 11.121 1.9124 15.314 5.108-1.3093 1.8183-2.5739 4.4237-3.7722 7.1035 2.7501-1.2308 5.4195-2.5316 7.2621-3.8539 3.5408 4.0277 5.6724 9.2101 5.6724 14.866 0 0.037 0.000171 0.073 0 0.11-2.2986 0.1148-5.2473 0.7893-8.2123 1.5653 2.7257 1.3356 5.4558 2.5784 7.6761 3.149-1.2022 5.3963-4.3763 10.101-8.7767 13.402-1.5301-1.6131-3.8021-3.3529-6.1615-5.0439 0.59579 2.7648 1.2649 5.4786 2.126 7.4971-3.3405 1.6218-7.1181 2.5449-11.128 2.5449-1.7097 0-3.3749-0.1688-4.9857-0.4852 0.3534-2.1774 0.32978-5.022 0.21638-7.8998-1.9277 2.2688-3.7659 4.5589-4.8351 6.5267-5.2969-2.1461-9.6236-6.0177-12.22-10.866 2.1146-1.026 4.6403-3.0199 7.1399-5.1171-3.3628-0.058-6.6781 0-8.9836 0.5584-0.52729-1.8965-0.80901-3.8872-0.80901-5.9409 0-3.7127 0.9264-7.222 2.5587-10.335 2.144 0.99041 5.3652 1.6861 8.6544 2.2885-2.0035-2.5356-4.0652-4.9654-5.9169-6.3895 3.4979-4.1817 8.483-7.1893 14.195-8.3118 0.63228 2.1487 1.9576 4.7808 3.3865 7.4055 0.72077-2.8404 1.3465-5.6625 1.4392-7.8816zm-1.4392 7.8816c-0.25665 1.0112-0.50878 2.014-0.77139 3.0026-3.5407 0.45361-6.6531 2.1782-8.8049 4.6685-0.69599-0.121-1.389-0.2473-2.0884-0.3754 0.40345 0.5106 0.79828 1.0173 1.1947 1.5288-1.3897 2.0266-2.2012 4.4375-2.2012 7.0303 0 1.384 0.23272 2.7221 0.6585 3.9728-0.35472 0.3022-0.71485 0.5971-1.0724 0.8971 0.47773 0.01 0.95288 0.016 1.4298 0.028 1.509 3.4897 4.5831 6.2172 8.4004 7.4148 0.03314 0.6708 0.05802 1.3386 0.08464 2.0139 0.4655-0.5479 0.92448-1.0899 1.3922-1.6294 0.92771 0.1859 1.8826 0.2837 2.8691 0.2837 2.6481 0 5.1255-0.7096 7.2245-1.9315 0.76065 0.5331 1.5199 1.0713 2.2859 1.6203-0.20198-0.9374-0.39475-1.8676-0.58319-2.792 2.4479-1.9678 4.1574-4.7298 4.6752-7.8633 1.0429-0.2848 2.1013-0.5716 3.1701-0.8513-1.0148-0.4973-2.0239-0.9957-3.0102-1.4921-0.07977-3.0109-1.2521-5.7622-3.1513-7.9273 0.46522-1.0714 0.94881-2.1712 1.4393-3.2681-1.1243 0.50322-2.251 0.99605-3.3489 1.4739-2.2492-1.7308-5.0909-2.8057-8.1934-2.911-0.53059-0.94958-1.0671-1.9152-1.5992-2.8927z" stroke="#7d7d7c" stroke-linecap="square" stroke-width=".47918" fill="#364e59"/>
  <path id="path3167" d="m248.17 959.79c-23.158 0-41.928 17.675-41.928 39.477 0 21.801 18.77 39.477 41.928 39.477s41.928-17.675 41.928-39.477-18.77-39.477-41.928-39.477zm-0.19155 11.879c0.064 0.00031 0.12737 0 0.19155 0 6.9443 0 13.321 2.2726 18.344 6.07-1.5684 2.1607-3.0832 5.2569-4.5185 8.4414 3.2942-1.4627 6.4918-3.0085 8.6989-4.5798 4.2413 4.7864 6.7946 10.945 6.7946 17.666 0 0.0442 0.00021 0.0863 0 0.13049-2.7534 0.13694-6.2854 0.93805-9.837 1.8602 3.2649 1.5871 6.5353 3.064 9.1948 3.742-1.4401 6.4127-5.2421 12.004-10.513 15.926-1.8328-1.9169-4.5543-3.9844-7.3805-5.9939 0.71365 3.2856 1.5151 6.5104 2.5466 8.9092-4.0013 1.9272-8.5264 3.0241-13.33 3.0241-2.048 0-4.0425-0.2004-5.972-0.5765 0.42332-2.5876 0.39502-5.9679 0.25914-9.3879-2.3091 2.6963-4.5109 5.4177-5.7918 7.7562-6.3448-2.5503-11.528-7.1511-14.637-12.912 2.5329-1.2193 5.5584-3.5887 8.5524-6.0809-4.0281-0.068-7.9993 0-10.761 0.6636-0.63162-2.2536-0.96908-4.6193-0.96908-7.0599 0-4.4118 1.1097-8.5822 3.0649-12.281 2.5681 1.1769 6.4267 2.0037 10.367 2.7195-2.3999-3.0131-4.8695-5.9005-7.0876-7.5929 4.1899-4.9692 10.161-8.5434 17.003-9.8774 0.75733 2.5535 2.3449 5.6813 4.0565 8.8005 0.86342-3.3754 1.6129-6.7291 1.724-9.3661zm-1.724 9.3661c-0.30735 1.2016-0.60939 2.3933-0.92399 3.568-4.2412 0.53897-7.9693 2.5884-10.547 5.5478-0.83369-0.14337-1.6637-0.29376-2.5015-0.44601 0.48324 0.60677 0.95619 1.2088 1.431 1.8167-1.6647 2.4082-2.6367 5.2733-2.6367 8.3544 0 1.6447 0.27878 3.2348 0.78876 4.7211-0.42486 0.3592-0.85624 0.7096-1.2845 1.0661 0.57227 0.01 1.1414 0.019 1.7127 0.032 1.8076 4.1469 5.4898 7.3881 10.062 8.8113 0.0397 0.7972 0.0696 1.5909 0.10139 2.3932 0.55764-0.6511 1.1074-1.2951 1.6677-1.9363 1.1113 0.221 2.255 0.3372 3.4368 0.3372 3.172 0 6.1395-0.8433 8.6538-2.2952 0.91119 0.6333 1.8206 1.273 2.7381 1.9254-0.24192-1.1139-0.47288-2.2194-0.69864-3.3179 2.9322-2.3384 4.98-5.6206 5.6002-9.3443 1.2492-0.3386 2.517-0.6793 3.7973-1.0117-1.2156-0.5909-2.4244-1.1832-3.6058-1.7731-0.0955-3.5781-1.4998-6.8474-3.7748-9.4206 0.55726-1.2731 1.1365-2.58 1.724-3.8835-1.3467 0.59794-2.6964 1.1837-4.0114 1.7514-2.6942-2.0568-6.0981-3.3341-9.8145-3.4592-0.63554-1.1284-1.2782-2.276-1.9156-3.4375z" stroke="#7d7d7c" stroke-linecap="square" stroke-width=".47918" fill="#151d21"/>
  <path id="path3042" d="m170.36 1016.5c-1.2564-0.313-13.623-2.7946-13.623-2.7946l-27.21-16.221 17.742-25.45 31.096 8.7635 5.0256-1.5649 0.62821 13.771-8.4808 9.0763s14.449 5.0077 12.564 5.6337c-1.8846 0.626-17.742 8.7857-17.742 8.7857z" stroke="#000" stroke-width=".47918" fill="url(#linearGradient4007)"/>
  <path id="path3018" d="m61.602 973.06c-20.707 0-37.489 15.93-37.489 35.579s16.783 35.579 37.489 35.579 37.489-15.93 37.489-35.579-16.783-35.579-37.489-35.579zm-0.17131 10.706c0.05706 0.00029 0.11392 0 0.17131 0 6.209 0 11.911 2.0482 16.402 5.4707-1.4023 1.9474-2.7568 4.7379-4.0401 7.6081 2.9454-1.3183 5.8044-2.7115 7.7779-4.1277 3.7922 4.3138 6.0752 9.8641 6.0752 15.922 0 0.039 0.000191 0.078 0 0.1171-2.4618 0.1234-5.62 0.8455-8.7955 1.6765 2.9192 1.4304 5.8433 2.7615 8.2212 3.3727-1.2876 5.7795-4.6871 10.818-9.4 14.353-1.6388-1.7276-4.0722-3.5909-6.5991-5.4021 0.63812 2.9613 1.3547 5.8677 2.277 8.0296-3.5777 1.737-7.6236 2.7256-11.919 2.7256-1.8312 0-3.6146-0.1807-5.3398-0.5197 0.37851-2.3321 0.35323-5.3785 0.23173-8.4609-2.0646 2.43-4.0333 4.8827-5.1785 6.9903-5.6731-2.2984-10.307-6.445-13.087-11.638 2.2648-1.0989 4.9699-3.2343 7.6469-5.4805-3.6016-0.062-7.1524 0-9.6216 0.598-0.56476-2.031-0.86645-4.1632-0.86645-6.3629 0-3.9762 0.9922-7.7348 2.7404-11.069 2.2962 1.0608 5.7462 1.806 9.269 2.4511-2.1458-2.7156-4.3539-5.318-6.3372-6.8433 3.7463-4.4786 9.0855-7.6999 15.203-8.9022 0.6772 2.3014 2.0966 5.1204 3.627 7.9316 0.77202-3.0422 1.4421-6.0648 1.5415-8.4414zm-1.5415 8.4414c-0.27484 1.083-0.54486 2.157-0.82615 3.2157-3.7922 0.48588-7.1256 2.3329-9.4302 5.0002-0.74543-0.1292-1.4876-0.2648-2.2367-0.402 0.43211 0.5469 0.85498 1.0895 1.2795 1.6373-1.4884 2.1705-2.3576 4.7526-2.3576 7.5296 0 1.4824 0.24928 2.9154 0.70528 4.255-0.37991 0.3236-0.76558 0.6395-1.1486 0.9608 0.51168 0.01 1.0206 0.017 1.5314 0.03 1.6161 3.7374 4.9086 6.6586 8.997 7.9413 0.03549 0.7185 0.06214 1.4338 0.09065 2.1569 0.4986-0.5868 0.99016-1.1672 1.4911-1.7451 0.99363 0.1992 2.0163 0.304 3.0729 0.304 2.8362 0 5.4895-0.76 7.7376-2.0687 0.81473 0.5708 1.6279 1.1474 2.4482 1.7353-0.21633-1.0039-0.42282-2.0003-0.62464-2.9903 2.6217-2.1075 4.4527-5.0657 5.0073-8.4218 1.117-0.3051 2.2506-0.6121 3.3953-0.9117-1.0869-0.5326-2.1677-1.0664-3.224-1.5981-0.08548-3.2248-1.341-6.1714-3.3751-8.4904 0.49825-1.1474 1.0162-2.3253 1.5415-3.5-1.2041 0.53882-2.4108 1.0667-3.5867 1.5784-2.409-1.8538-5.4524-3.005-8.7753-3.1177-0.56827-1.017-1.1429-2.0513-1.7128-3.0981z" stroke="#7d7d7c" stroke-linecap="square" stroke-width=".47918" fill="url(#linearGradient3977)"/>
  <path id="path2996" d="m105.81 1008 20.417-8.1374s11.308-14.084 12.25-15.649c0.94231-1.5649 10.051-14.084 10.051-14.084l-5.6538-4.0687-34.237-12.832-14.135-4.3818-19.788-5.3207-6.9102-5.9467 2.8269-7.8244 13.82-7.1986 9.4231-1.8779s8.1666-9.7024 6.9102-9.7024-25.128 14.71-25.128 14.71l-16.333 3.4428-8.4808 10.015 3.4551 0.31299-1.2564 1.8779 6.9103 2.5039-5.3398 15.023 8.1667 3.7558 4.3974 6.2596 17.276 15.336 12.25 10.954 8.1667 4.3817z" stroke="#000" stroke-width=".47918" fill="#dc0000"/>
  <path id="path2998" d="m55.601 931.22 35.503-28.619 15.915 7.3482-33.462 17.791z" stroke="#000" stroke-width=".47918" fill="url(#linearGradient4318)"/>
  <path id="path3000" d="m51.289 937.91s-12.73 10.921-11.203 17.224c1.0853 4.481 15.309 4.1566 15.309 4.1566l5.4977-14.997z" stroke="#000" stroke-width=".47918" fill="url(#linearGradient4320)"/>
  <path id="path3002" d="m74.775 968.91c-14.265 0.99347-29.119 1.0066-39.117 9.1013l14.565 3.1656 3.3291-4.3527 18.726-0.39579 13.733 3.9572z" stroke="#000" stroke-width=".47918" fill="#dc0000"/>
  <path id="path3004" d="m69.374 937.26s13.398-0.72485 20.103-0.93894c6.0704-0.19391 12.178-0.95325 18.218-0.31299 12.829 1.36 26.612 2.1783 37.692 8.7634 13.569 8.0638 32.667 35.993 31.41 35.367-1.2564-0.62596-27.327-8.4505-27.327-8.4505l-6.5961-5.6336s-31.854-11.62-48.058-16.588c-6.5299-2.0021-19.788-5.3207-19.788-5.3207z" stroke="#000" stroke-width=".47918" fill="#0e232e"/>
  <path id="path3006" d="m153.87 952.59-8.1666-7.5116-32.038-8.4504s-2.8269-0.62598-2.1987-1.8779 0-2.5038 2.8269-4.3817 20.747-6.1638 31.41-7.8245c4.7686-0.74271 11.406-4.328 18.002-1.8242 6.5961 2.5038 14.978 18.099 14.978 18.099l-3.7692 8.1375z" stroke="#000" stroke-width=".47918" fill="#dc0000"/>
  <path id="path3008" d="m174.91 947.27 10.051 5.9466 19.474-0.93895 17.904-17.214-2.5128-1.5649-6.2821 4.6946-16.019 2.5038-13.192 2.1909h-7.5384z" stroke="#000" stroke-width=".47918" fill="#0e232e"/>
  <path id="path3010" d="m204.44 952.9 16.962-17.214 13.192-6.8856 22.615-10.641 18.846-0.31299-18.218 15.023-23.558 12.832-14.763 6.8856h-13.506z" stroke="#000" stroke-width=".47918" fill="#dc0000"/>
  <path id="path3012" d="m255.95 916.91-35.798 6.8856s-0.32334 2.5039-1.8938 6.2596c-1.5705 3.7558-2.827 4.3817 0 5.6337 2.8269 1.2519 8.1666-2.5039 8.1666-2.5039z" stroke="#000" stroke-width=".47918" fill="#0e232e"/>
  <path id="path3014" d="m153.55 953.22 10.994 13.458 12.564 12.832c25.106-6.055 36.159-16.778 47.411-27.435l-37.36 0.83153-13.506-5.9466z" stroke="#000" stroke-width=".47918" fill="#2d2d2d"/>
  <path id="path3020" d="m105.5 1006.4-4.7654 20.764 11.676 1.4576 3.7692-2.8169 1.5482 2.1687 31.118 0.6482 6.282-4.0688 1.8846 3.7558 39.608-0.8853-16.118-9.7783-19.093 9.0987 16.019-10.328s-7.5384 0-12.878-0.939c-5.3397-0.9389-18.846-10.328-18.846-10.328l-15.391-10.328-19.183 25.061 14.471-2.2131-13.506 2.5038 7.5384-16.275z" stroke="#000" stroke-width=".47918" fill="url(#linearGradient3999)"/>
  <path id="path3022" d="m178.05 1014.9 1.2564 5.6336c7.2397-5.7447 30.56-6.4882 34.237-12.519 1.2564-2.1909 5.968-13.145 5.968-13.145 6.5359-3.8403 5.6179-6.3491 8.1667 0l-6.282-9.3894s-5.6539 3.4428-7.2244 5.9466c-1.5705 2.5039-3.7692 7.8246-3.7692 7.8246 0.18833 5.8363-9.5515 7.7887-19.16 10.328z" stroke="#000" stroke-width=".47918" fill="url(#linearGradient4023)"/>
  <path id="path3024" d="m230.82 994.53-12.56-12.52 53.83-35.82c7.0672 2.269 12.276 3.715 10.994 11.893z" stroke="#000" stroke-width=".47918" fill="url(#linearGradient4015)"/>
  <path id="path3034" d="m-200.01 484.15a81.317 73.236 0 1 1 -162.63 0 81.317 73.236 0 1 1 162.63 0z" transform="matrix(.12973 0 0 .14308 192.56 930.11)" stroke="#7d7d7c" stroke-linecap="square" stroke-width="3.5172" fill="#756457"/>
  <path id="path3038" fill="#2d2d2d" transform="matrix(.22760 0 0 .22679 182.88 863.42)" stroke="#7d7d7c" stroke-linecap="square" stroke-width="2.1091" d="m-106.07 616.99c1.4546-1.0506-23.95 1.5468-22.313 2.2812 1.6371 0.73446-13.314-19.968-13.132-18.183 0.1825 1.785 10.635-21.515 9.1807-20.464-1.4546 1.0506 23.95-1.5468 22.313-2.2813-1.6371-0.73446 13.314 19.968 13.132 18.183-0.1825-1.785-10.635 21.515-9.1807 20.464z"/>
  <path id="path3044" d="m178.05 986.39 8.7948 10.641 14.449 3.4428s6.533-10.954 10.302-15.023c3.7692-4.0688 13.57-15.336 13.57-15.336s17.768-4.5872 15.884-4.2742c-1.8846 0.31299-62.999 20.549-62.999 20.549z" stroke="#000" stroke-width=".47918" fill="#000002"/>
  <path id="path3046" d="m227.68 970.43-24.814-7.8244 3.4551-2.8168 20.731 7.1986z" stroke="#000" stroke-width=".47918" fill="#0e232e"/>
  <path id="path3048" d="m228 969.81c-1.2564-0.62599-19.16-12.519-19.16-12.519l4.7115-3.7558 14.449 11.267-2.8269 3.4428 1.8846-2.5038-1.2564 0.93893" stroke="#000" stroke-width=".47918" fill="#0e232e"/>
  <path id="path3050" d="m196.58 1001.1-21.673-3.7558 3.7692-2.8168z" stroke="#000" stroke-width=".47918" fill="none"/>
  <path id="path3052" d="m197.53 1000.5-21.987 1.5648 0.62821 3.4428 21.359-2.1908z" stroke="#000" stroke-width=".47918" fill="none"/>
  <path id="path3054" d="m-214.29 340.93 57.143 28.571-14.286 45.714 48.571-54.286-114.29-45.714z" transform="matrix(.31094 0 0 .30983 154.81 862.83)" filter="url(#filter3945)" stroke="#000" stroke-width="1.5438" fill="#f60"/>
  <path id="path4262" opacity=".97073" d="m-252.54 250.3a12.122 14.142 0 1 1 -24.244 0 12.122 14.142 0 1 1 24.244 0z" transform="matrix(.31094 0 0 .30983 159.84 874.1)" stroke="#7d7d7c" stroke-linecap="square" stroke-width="1.5438" fill="#0e232e"/>
  <path id="path4264" opacity=".75122" d="m77.554 953.74s-0.62841-5.5621-1.5603-8.2418c-1.2309-3.5399-2.0738-7.1548-2.0738-7.1548" stroke="#292626" stroke-width=".47918" fill="none"/>
  <path id="path4328" opacity=".50732" d="m51.289 937.91s-12.73 10.921-11.203 17.224c1.0853 4.481 15.309 4.1566 15.309 4.1566l5.4977-14.997z" stroke="#000" stroke-width=".47918" fill="url(#linearGradient4336)"/>
 </g>
 <metadata>
  <rdf:RDF>
   <cc:Work>
    <dc:format>image/svg+xml</dc:format>
    <dc:type rdf:resource="http://purl.org/dc/dcmitype/StillImage"/>
    <cc:license rdf:resource="http://creativecommons.org/licenses/publicdomain/"/>
    <dc:publisher>
     <cc:Agent rdf:about="http://openclipart.org/">
      <dc:title>Openclipart</dc:title>
     </cc:Agent>
    </dc:publisher>
   </cc:Work>
   <cc:License rdf:about="http://creativecommons.org/licenses/publicdomain/">
    <cc:permits rdf:resource="http://creativecommons.org/ns#Reproduction"/>
    <cc:permits rdf:resource="http://creativecommons.org/ns#Distribution"/>
    <cc:permits rdf:resource="http://creativecommons.org/ns#DerivativeWorks"/>
   </cc:License>
  </rdf:RDF>
 </metadata>
</svg>
