<?xml version="1.0" encoding="UTF-8" standalone="no"?>
<!-- Created with Inkscape (http://www.inkscape.org/) -->
<svg xmlns:inkscape="http://www.inkscape.org/namespaces/inkscape" xmlns:rdf="http://www.w3.org/1999/02/22-rdf-syntax-ns#" xmlns="http://www.w3.org/2000/svg" xmlns:cc="http://web.resource.org/cc/" xmlns:xlink="http://www.w3.org/1999/xlink" xmlns:dc="http://purl.org/dc/elements/1.1/" xmlns:svg="http://www.w3.org/2000/svg" xmlns:sodipodi="http://sodipodi.sourceforge.net/DTD/sodipodi-0.dtd" xmlns:ns1="http://sozi.baierouge.fr" id="svg2" viewBox="0 0 928.39 475.52" version="1.0" inkscape:version="0.91 r13725">
  <defs id="defs4">
    <linearGradient id="linearGradient31171">
      <stop id="stop31173" style="stop-color:#ffffff" offset="0"/>
      <stop id="stop31175" style="stop-color:#ffffff;stop-opacity:0" offset="1"/>
    </linearGradient>
    <linearGradient id="linearGradient27209">
      <stop id="stop27211" style="stop-color:#ffffff;stop-opacity:.65487" offset="0"/>
      <stop id="stop27213" style="stop-color:#ffffff;stop-opacity:0" offset="1"/>
    </linearGradient>
    <linearGradient id="linearGradient3281">
      <stop id="stop3283" style="stop-color:#aa0000" offset="0"/>
      <stop id="stop3289" style="stop-color:#aa0000" offset=".56847"/>
      <stop id="stop3291" style="stop-color:#ffc2c2" offset=".58397"/>
      <stop id="stop3293" style="stop-color:#aa0000" offset=".59133"/>
      <stop id="stop3285" style="stop-color:#aa0000" offset="1"/>
    </linearGradient>
    <linearGradient id="linearGradient3271">
      <stop id="stop3273" style="stop-color:#000000" offset="0"/>
      <stop id="stop3275" style="stop-color:#000000;stop-opacity:0" offset="1"/>
    </linearGradient>
    <linearGradient id="linearGradient3263">
      <stop id="stop3265" style="stop-color:#393544" offset="0"/>
      <stop id="stop3308" style="stop-color:#736f80" offset=".52543"/>
      <stop id="stop3302" style="stop-color:#aeaabc" offset=".61210"/>
      <stop id="stop3304" style="stop-color:#a39eb3" offset=".94749"/>
      <stop id="stop3306" style="stop-color:#c0bdcb" offset=".95632"/>
      <stop id="stop3267" style="stop-color:#9893aa" offset="1"/>
    </linearGradient>
    <linearGradient id="linearGradient3239">
      <stop id="stop3241" style="stop-color:#aaa8b5" offset="0"/>
      <stop id="stop3251" style="stop-color:#d5d4da" offset=".34071"/>
      <stop id="stop3253" style="stop-color:#a5a3b1" offset=".51106"/>
      <stop id="stop3247" style="stop-color:#a4a2b0" offset=".68142"/>
      <stop id="stop3249" style="stop-color:#3e3c47" offset=".97745"/>
      <stop id="stop3243" style="stop-color:#53515f" offset="1"/>
    </linearGradient>
    <linearGradient id="linearGradient3223">
      <stop id="stop3225" style="stop-color:#bab7c7" offset="0"/>
      <stop id="stop3231" style="stop-color:#bab7c7" offset=".72566"/>
      <stop id="stop3233" style="stop-color:#514d63" offset=".86283"/>
      <stop id="stop3227" style="stop-color:#484558" offset="1"/>
    </linearGradient>
    <linearGradient id="linearGradient3229" y2="321.69" xlink:href="#linearGradient3223" gradientUnits="userSpaceOnUse" x2="399.74" y1="316.91" x1="399.74"/>
    <linearGradient id="linearGradient3245" y2="334.58" xlink:href="#linearGradient3239" gradientUnits="userSpaceOnUse" x2="328.41" y1="322.53" x1="328.41"/>
    <linearGradient id="linearGradient3277" y2="323.27" xlink:href="#linearGradient3271" gradientUnits="userSpaceOnUse" x2="328.41" y1="333.83" x1="328.41"/>
    <linearGradient id="linearGradient3287" y2="188.14" xlink:href="#linearGradient3281" gradientUnits="userSpaceOnUse" x2="399.59" y1="479.4" x1="399.59"/>
    <linearGradient id="linearGradient3301" y2="304.16" gradientUnits="userSpaceOnUse" x2="389.7" y1="204.45" x1="389.7">
      <stop id="stop3315" style="stop-color:#6e789c" offset="0"/>
      <stop id="stop3317" style="stop-color:#5b6483" offset=".34786"/>
      <stop id="stop3321" style="stop-color:#464f67" offset=".41548"/>
      <stop id="stop3299" style="stop-color:#677196" offset="1"/>
    </linearGradient>
    <radialGradient id="radialGradient3266" gradientUnits="userSpaceOnUse" cy="236.43" cx="385.64" gradientTransform="matrix(1 -.014712 .0043214 .29373 -1.0526 177.67)" r="57.932">
      <stop id="stop3262" style="stop-color:#808080" offset="0"/>
      <stop id="stop3268" style="stop-color:#808080" offset=".78761"/>
      <stop id="stop3270" style="stop-color:#808080" offset=".90414"/>
      <stop id="stop3264" style="stop-color:#1c1c1c" offset="1"/>
    </radialGradient>
    <linearGradient id="linearGradient3286" y2="239.52" gradientUnits="userSpaceOnUse" x2="378.44" y1="248.66" x1="379.02">
      <stop id="stop3282" style="stop-color:#000000" offset="0"/>
      <stop id="stop3284" style="stop-color:#000000;stop-opacity:0" offset="1"/>
    </linearGradient>
    <linearGradient id="linearGradient3298" y2="244.74" gradientUnits="userSpaceOnUse" x2="385.61" y1="240.34" x1="385.61">
      <stop id="stop3294" style="stop-color:#1a1a1a" offset="0"/>
      <stop id="stop3296" style="stop-color:#1a1a1a;stop-opacity:0" offset="1"/>
    </linearGradient>
    <radialGradient id="radialGradient3300" xlink:href="#linearGradient3263" gradientUnits="userSpaceOnUse" cy="328.55" cx="328.41" gradientTransform="matrix(1 0 0 1.1163 0 -38.223)" r="6.2346"/>
    <linearGradient id="linearGradient3322" y2="271.73" gradientUnits="userSpaceOnUse" x2="411.85" gradientTransform="matrix(.97944 0 0 .98540 7.6627 3.6522)" y1="201.54" x1="343.23">
      <stop id="stop3318" style="stop-color:#000000;stop-opacity:.80503" offset="0"/>
      <stop id="stop3320" style="stop-color:#000000;stop-opacity:0" offset="1"/>
    </linearGradient>
    <linearGradient id="linearGradient3230" y2="267.31" gradientUnits="userSpaceOnUse" x2="267.24" y1="234.36" x1="235.06">
      <stop id="stop3226" style="stop-color:#000000" offset="0"/>
      <stop id="stop3228" style="stop-color:#000000;stop-opacity:0" offset="1"/>
    </linearGradient>
    <linearGradient id="linearGradient3234" y2="323.2" xlink:href="#linearGradient3223" gradientUnits="userSpaceOnUse" x2="399.84" gradientTransform="translate(-169.03 .38071)" y1="317.86" x1="399.74"/>
    <linearGradient id="linearGradient3256" y2="203.85" xlink:href="#linearGradient3281" gradientUnits="userSpaceOnUse" x2="257.21" y1="458.44" x1="261.02"/>
    <linearGradient id="linearGradient3309" y2="328.9" gradientUnits="userSpaceOnUse" x2="347.92" y1="325.42" x1="313.4">
      <stop id="stop3305" style="stop-color:#7d0000" offset="0"/>
      <stop id="stop3311" style="stop-color:#7a0000" offset=".0099389"/>
      <stop id="stop3316" style="stop-color:#ff8585" offset=".090277"/>
      <stop id="stop3313" style="stop-color:#620000" offset=".14663"/>
      <stop id="stop3307" style="stop-color:#4a0000" offset="1"/>
    </linearGradient>
    <linearGradient id="linearGradient3330" y2="472.05" gradientUnits="userSpaceOnUse" x2="299.65" y1="467.86" x1="299.65">
      <stop id="stop3325" style="stop-color:#f4d7d7" offset="0"/>
      <stop id="stop3328" style="stop-color:#5a1919" offset="1"/>
    </linearGradient>
    <linearGradient id="linearGradient3340" y2="486.41" gradientUnits="userSpaceOnUse" x2="341.19" y1="468.73" x1="343.13">
      <stop id="stop3336" style="stop-color:#a86868" offset="0"/>
      <stop id="stop3346" style="stop-color:#8d2020" offset=".39054"/>
      <stop id="stop3348" style="stop-color:#cbcce1" offset=".40487"/>
      <stop id="stop3342" style="stop-color:#cbcce1" offset=".5"/>
      <stop id="stop3344" style="stop-color:#cbcce1" offset=".69027"/>
      <stop id="stop3338" style="stop-color:#131422" offset="1"/>
    </linearGradient>
    <linearGradient id="linearGradient3359" y2="325.2" gradientUnits="userSpaceOnUse" x2="332.51" y1="185.22" x1="329.23">
      <stop id="stop3355" style="stop-color:#550000" offset="0"/>
      <stop id="stop3361" style="stop-color:#550000;stop-opacity:.86164" offset=".0059845"/>
      <stop id="stop3365" style="stop-color:#550000;stop-opacity:0" offset=".067625"/>
      <stop id="stop3357" style="stop-color:#550000;stop-opacity:0" offset="1"/>
    </linearGradient>
    <linearGradient id="linearGradient6442" y2="394.67" gradientUnits="userSpaceOnUse" x2="178.73" gradientTransform="translate(.36005 .18002)" y1="469.1" x1="175.01">
      <stop id="stop6420" style="stop-color:#19243e" offset="0"/>
      <stop id="stop6428" style="stop-color:#c2cde6" offset=".16035"/>
      <stop id="stop6422" style="stop-color:#c2cde6" offset="1"/>
    </linearGradient>
    <linearGradient id="linearGradient6456" y2="432.13" gradientUnits="userSpaceOnUse" x2="165.2" gradientTransform="translate(.36005 .18002)" y1="430.28" x1="194.78">
      <stop id="stop6448" style="stop-color:#19243e" offset="0"/>
      <stop id="stop6450" style="stop-color:#33497d;stop-opacity:0" offset=".16035"/>
      <stop id="stop6452" style="stop-color:#c2cde6;stop-opacity:0" offset=".16035"/>
      <stop id="stop6454" style="stop-color:#c2cde6;stop-opacity:0" offset="1"/>
    </linearGradient>
    <radialGradient id="radialGradient7443" gradientUnits="userSpaceOnUse" cy="414.39" cx="127.62" gradientTransform="matrix(1.6533 0 0 1.5248 -82.805 -212.47)" r="70.269">
      <stop id="stop7439" style="stop-color:#ffffff;stop-opacity:0" offset="0"/>
      <stop id="stop7445" style="stop-color:#ffffff;stop-opacity:0" offset=".5"/>
      <stop id="stop7441" style="stop-color:#ffffff;stop-opacity:.56195" offset="1"/>
    </radialGradient>
    <radialGradient id="radialGradient9393" gradientUnits="userSpaceOnUse" cy="450.4" cx="160.62" gradientTransform="matrix(1.532 0 0 .44363 -87.759 255.97)" r="22.072">
      <stop id="stop9389" style="stop-color:#ffffff" offset="0"/>
      <stop id="stop9391" style="stop-color:#ffffff;stop-opacity:0" offset="1"/>
    </radialGradient>
    <linearGradient id="linearGradient11344" y2="287.08" gradientUnits="userSpaceOnUse" x2="224.62" y1="233.82" x1="132.37">
      <stop id="stop11340" style="stop-color:#000000" offset="0"/>
      <stop id="stop11342" style="stop-color:#000000;stop-opacity:0" offset="1"/>
    </linearGradient>
    <filter id="filter11437">
      <feGaussianBlur id="feGaussianBlur11439" stdDeviation="3.388806" inkscape:collect="always"/>
    </filter>
    <linearGradient id="linearGradient11447" y2="477.98" gradientUnits="userSpaceOnUse" x2="269.12" y1="81.984" x1="281.41">
      <stop id="stop11443" style="stop-color:#ffffff;stop-opacity:.38496" offset="0"/>
      <stop id="stop11445" style="stop-color:#ffffff;stop-opacity:0" offset="1"/>
    </linearGradient>
    <radialGradient id="radialGradient15350" gradientUnits="userSpaceOnUse" cy="447.4" cx="740.01" gradientTransform="matrix(1.8237 -.089722 .21566 1.1405 -706 2.0694)" r="12.766">
      <stop id="stop15346" style="stop-color:#efa68b" offset="0"/>
      <stop id="stop15352" style="stop-color:#833213" offset=".74830"/>
      <stop id="stop15348" style="stop-color:#833213" offset="1"/>
    </radialGradient>
    <radialGradient id="radialGradient15370" gradientUnits="userSpaceOnUse" cy="456.69" cx="741.57" gradientTransform="matrix(1 0 0 1.1591 0 -72.656)" r="12.766">
      <stop id="stop15366" style="stop-color:#000000" offset="0"/>
      <stop id="stop15374" style="stop-color:#000000" offset=".84354"/>
      <stop id="stop15368" style="stop-color:#000000;stop-opacity:0" offset="1"/>
    </radialGradient>
    <filter id="filter17386" y="-.13368" x="-.055832" height="1.2674" width="1.1117">
      <feGaussianBlur id="feGaussianBlur17388" stdDeviation="7.8864412" inkscape:collect="always"/>
    </filter>
    <linearGradient id="linearGradient18374" y2="352.39" gradientUnits="userSpaceOnUse" x2="614.53" y1="331.55" x1="618.18">
      <stop id="stop18370" style="stop-color:#240000" offset="0"/>
      <stop id="stop19345" style="stop-color:#670000;stop-opacity:.95133" offset=".5"/>
      <stop id="stop18372" style="stop-color:#aa0000;stop-opacity:0" offset="1"/>
    </linearGradient>
    <linearGradient id="linearGradient19353" y2="361.81" gradientUnits="userSpaceOnUse" x2="574.7" y1="334.48" x1="517.35">
      <stop id="stop19349" style="stop-color:#aa0000" offset="0"/>
      <stop id="stop19355" style="stop-color:#aa0000" offset=".071220"/>
      <stop id="stop19357" style="stop-color:#db0000;stop-opacity:.37168" offset=".58163"/>
      <stop id="stop19359" style="stop-color:#aa0000" offset="1"/>
    </linearGradient>
    <linearGradient id="linearGradient19375" y2="380.25" gradientUnits="userSpaceOnUse" x2="599.16" y1="338.04" x1="608.1">
      <stop id="stop19371" style="stop-color:#000000" offset="0"/>
      <stop id="stop19377" style="stop-color:#000000;stop-opacity:0" offset=".11565"/>
      <stop id="stop19373" style="stop-color:#000000;stop-opacity:0" offset="1"/>
    </linearGradient>
    <linearGradient id="linearGradient21331" y2="540.77" gradientUnits="userSpaceOnUse" x2="872.2" y1="315.82" x1="595.45">
      <stop id="stop21327" style="stop-color:#aa0000" offset="0"/>
      <stop id="stop21333" style="stop-color:#aa0000" offset=".5"/>
      <stop id="stop21329" style="stop-color:#610000" offset="1"/>
    </linearGradient>
    <radialGradient id="radialGradient21343" gradientUnits="userSpaceOnUse" cy="509.7" cx="875.59" gradientTransform="matrix(.54103 -0.841 1.0561 .67942 -137.68 826.02)" r="206.67">
      <stop id="stop21337" style="stop-color:#ff1b1b" offset="0"/>
      <stop id="stop21339" style="stop-color:#aa0000" offset="1"/>
    </radialGradient>
    <radialGradient id="radialGradient21354" spreadMethod="reflect" gradientUnits="userSpaceOnUse" cy="439.82" cx="489.31" gradientTransform="matrix(.010636 -.060504 .080472 .014146 583.6 478.92)" r="206.67">
      <stop id="stop21350" style="stop-color:#db0000;stop-opacity:.56637" offset="0"/>
      <stop id="stop21356" style="stop-color:#e12525;stop-opacity:0" offset=".5"/>
      <stop id="stop21352" style="stop-color:#ff0b0b;stop-opacity:0" offset="1"/>
    </radialGradient>
    <linearGradient id="linearGradient22335" y2="348.08" gradientUnits="userSpaceOnUse" x2="721.45" y1="278.82" x1="720.3">
      <stop id="stop22331" style="stop-color:#ffd5d5;stop-opacity:.79204" offset="0"/>
      <stop id="stop22333" style="stop-color:#ffd5d5;stop-opacity:0" offset="1"/>
    </linearGradient>
    <radialGradient id="radialGradient27215" xlink:href="#linearGradient27209" gradientUnits="userSpaceOnUse" cy="585.43" cx="746.19" gradientTransform="matrix(.57164 -.028401 .0043532 .087619 317.09 485.84)" r="100.03"/>
    <radialGradient id="radialGradient27219" xlink:href="#linearGradient27209" gradientUnits="userSpaceOnUse" cy="565.15" cx="948.42" gradientTransform="matrix(.57164 -.028401 .0043532 .087619 317.09 485.84)" r="100.03"/>
    <linearGradient id="linearGradient30138" y2="529.42" gradientUnits="userSpaceOnUse" x2="851.38" y1="522.9" x1="850.99">
      <stop id="stop30134" style="stop-color:#727da2" offset="0"/>
      <stop id="stop30136" style="stop-color:#212532" offset="1"/>
    </linearGradient>
    <radialGradient id="radialGradient30158" gradientUnits="userSpaceOnUse" cy="474.22" cx="831.74" gradientTransform="matrix(.60620 0 0 1.4447 327.54 -232.85)" r="17.883">
      <stop id="stop30154" style="stop-color:#9ca5c4" offset="0"/>
      <stop id="stop30156" style="stop-color:#9ca5c4;stop-opacity:0" offset="1"/>
    </radialGradient>
    <linearGradient id="linearGradient30170" y2="485.82" gradientUnits="userSpaceOnUse" x2="956.64" y1="485.82" x1="911.7">
      <stop id="stop30166" style="stop-color:#41486e" offset="0"/>
      <stop id="stop30168" style="stop-color:#777fae" offset="1"/>
    </linearGradient>
    <radialGradient id="radialGradient31177" xlink:href="#linearGradient31171" gradientUnits="userSpaceOnUse" cy="455.61" cx="672.21" gradientTransform="matrix(.78189 .32115 -.55322 .94678 398.66 -197.85)" r="81.348"/>
    <radialGradient id="radialGradient3452" gradientUnits="userSpaceOnUse" cy="445.42" cx="934.08" gradientTransform="matrix(2.6542 .29539 -.17083 1.535 -1469.1 -516.04)" r="5.7284">
      <stop id="stop3448" style="stop-color:#dc8457" offset="0"/>
      <stop id="stop3450" style="stop-color:#673116" offset="1"/>
    </radialGradient>
    <linearGradient id="linearGradient7464" y2="189.55" gradientUnits="userSpaceOnUse" x2="514.67" y1="201.22" x1="513.34">
      <stop id="stop7460" style="stop-color:#3b4c71" offset="0"/>
      <stop id="stop7462" style="stop-color:#3b4c71;stop-opacity:0" offset="1"/>
    </linearGradient>
  </defs>
  <g id="layer18" transform="translate(-43.4 -149.07)">
    <path id="path31184" style="fill:#000000" d="m703.88 519.46c0 49.3-36.43 89.27-81.35 89.27-44.93 0-81.35-39.97-81.35-89.27s36.42-89.27 81.35-89.27c44.92 0 81.35 39.97 81.35 89.27z" transform="matrix(.73606 0 0 .73450 -309.68 107.04)"/>
    <path id="path31186" style="fill:#141318" d="m703.88 519.46c0 49.3-36.43 89.27-81.35 89.27-44.93 0-81.35-39.97-81.35-89.27s36.42-89.27 81.35-89.27c44.92 0 81.35 39.97 81.35 89.27z" transform="matrix(.61759 0 0 .72586 -244.98 111.53)"/>
    <path id="path31188" style="fill:#808080" d="m703.88 519.46c0 49.3-36.43 89.27-81.35 89.27-44.93 0-81.35-39.97-81.35-89.27s36.42-89.27 81.35-89.27c44.92 0 81.35 39.97 81.35 89.27z" transform="matrix(.45551 0 0 .54212 -146.15 210.22)"/>
    <path id="path31190" style="fill:#4d4d4d" d="m703.88 519.46c0 49.3-36.43 89.27-81.35 89.27-44.93 0-81.35-39.97-81.35-89.27s36.42-89.27 81.35-89.27c44.92 0 81.35 39.97 81.35 89.27z" transform="matrix(.37810 0 0 .43441 -91.664 266.17)"/>
    <path id="path31192" style="fill:#9ea6b8" d="m703.88 519.46c0 49.3-36.43 89.27-81.35 89.27-44.93 0-81.35-39.97-81.35-89.27s36.42-89.27 81.35-89.27c44.92 0 81.35 39.97 81.35 89.27z" transform="matrix(.23173 0 0 .27639 -6.8411 348.25)"/>
    <path id="path31194" style="fill:url(#radialGradient31177)" d="m703.88 519.46c0 49.3-36.43 89.27-81.35 89.27-44.93 0-81.35-39.97-81.35-89.27s36.42-89.27 81.35-89.27c44.92 0 81.35 39.97 81.35 89.27z" transform="matrix(.23173 0 0 .27639 -6.8411 348.25)"/>
  </g>
  <g id="layer16" transform="translate(-43.4 -149.07)">
    <path id="path31142" style="fill-rule:evenodd;stroke:#000000;stroke-width:1px;fill:#000000" d="m129.07 450.13l23.46 43.74 70.4-5.34 94.94 17.07s10.17 28.8 41.64 31.58c38.23 3.39 28.55-16.99 46.76-17.62 10.15-0.35 33.16 2.52 60.6 6.64 1.88 0.28-2.91 21.17-0.98 21.37 13.73 1.38 22.41-28.23 26.53-27.58 53.12 8.38 100.81 49.08 119.45 51.01 30.93 3.2 97.46-27 122-27 24.53 0 35.2-2.13 35.2-2.13s7.46 20.26 23.46 36.26 69.18 8.87 77.87 4.27c18.13-9.6 33.07-33.07 35.2-46.93 2.13-13.87 2.13-36.27 2.13-36.27l-282.58-130.03-455.55-37.44-40.53 118.4z"/>
  </g>
  <g id="layer17" transform="translate(-43.4 -149.07)">
    <path id="path31181" style="fill:#000000" d="m703.88 519.46c0 49.3-36.43 89.27-81.35 89.27-44.93 0-81.35-39.97-81.35-89.27s36.42-89.27 81.35-89.27c44.92 0 81.35 39.97 81.35 89.27z" transform="matrix(1.0183 0 0 1.0161 -10.715 -7.2614)"/>
    <path id="path31155" style="fill:#141318" d="m703.88 519.46c0 49.3-36.43 89.27-81.35 89.27-44.93 0-81.35-39.97-81.35-89.27s36.42-89.27 81.35-89.27c44.92 0 81.35 39.97 81.35 89.27z" transform="matrix(.85440 0 0 1.0042 78.797 -1.0544)"/>
    <path id="path31157" style="fill:#808080" d="m703.88 519.46c0 49.3-36.43 89.27-81.35 89.27-44.93 0-81.35-39.97-81.35-89.27s36.42-89.27 81.35-89.27c44.92 0 81.35 39.97 81.35 89.27z" transform="matrix(.63018 0 0 0.75 215.51 135.48)"/>
    <path id="path31179" style="fill:#4d4d4d" d="m703.88 519.46c0 49.3-36.43 89.27-81.35 89.27-44.93 0-81.35-39.97-81.35-89.27s36.42-89.27 81.35-89.27c44.92 0 81.35 39.97 81.35 89.27z" transform="matrix(.52308 0 0 .60098 290.9 212.89)"/>
    <path id="path31159" style="fill:#9ea6b8" d="m703.88 519.46c0 49.3-36.43 89.27-81.35 89.27-44.93 0-81.35-39.97-81.35-89.27s36.42-89.27 81.35-89.27c44.92 0 81.35 39.97 81.35 89.27z" transform="matrix(.32058 0 0 .38237 408.25 326.45)"/>
    <path id="path31161" style="fill:url(#radialGradient31177)" d="m703.88 519.46c0 49.3-36.43 89.27-81.35 89.27-44.93 0-81.35-39.97-81.35-89.27s36.42-89.27 81.35-89.27c44.92 0 81.35 39.97 81.35 89.27z" transform="matrix(.32058 0 0 .38237 408.25 326.45)"/>
  </g>
  <g id="layer8" transform="translate(-43.4 -149.07)">
    <path id="path9396" style="fill-rule:evenodd;fill:#aa0000" d="m546.13 396.8l-41.06-83.2-3.2-6.93-9.07-0.54s-49.29-106.64-53.95-112.61c-9.94-12.73-40.15-23.17-92.13-22.45-42.15 0.59-71.26 1.3-96.88 7.65-23.41 5.8-54.04 12.2-86.75 54.78-20.81 27.1-46.48 87.42-56.96 109.97-16.347 35.18-27.73 110.4-27.73 110.4l124.21 13.86s-10.05-106.32-10.74-120.44c-0.97-19.99 3.89-50.4 14.16-77.12 9.93-25.83 28.87-48.38 44.2-57.75 29.47-17.99 36.39-23.05 92.67-27.13 25.56-1.85 63.83 2.39 77.16 14.12 13.34 11.74 51.33 89.81 62.61 111.52 18.35 35.34 4.07 135.69 0.87 150.63-3.2 14.93-5.14 33.37-5.14 33.37l67.73-98.13z"/>
    <path id="path11346" style="filter:url(#filter11437);fill-rule:evenodd;fill:url(#linearGradient11447)" d="m351.53 173.03c-1.58 0-3.19 0.01-4.81 0.03-42.14 0.59-71.26 1.31-96.88 7.66-23.41 5.8-65.17 27.15-86.75 54.78-21.03 26.93-46.49 87.42-56.97 109.97-16.345 35.18-27.714 110.41-27.714 110.41l1.594 0.18c3.612-21.22 13.294-72.98 26.12-100.59 10.48-22.55 35.94-83.04 56.97-109.97 21.58-27.63 63.34-48.98 86.75-54.78 25.62-6.35 54.74-7.07 96.88-7.66 51.98-0.72 82.19 9.74 92.12 22.47 4.67 5.98 53.97 112.59 53.97 112.59l9.07 0.54 3.18 6.93 38.19 77.38 2.87-4.16-41.06-83.22-3.18-6.93-9.07-0.54s-49.3-106.61-53.97-112.59c-9.62-12.33-38.26-22.53-87.31-22.5zm-159.65 175.97c-0.14 3.65-0.16 7.1 0 10.28 0.58 12.01 7.58 87.02 9.78 110.34l0.96 0.1c0.01 0-10.06-106.31-10.74-120.44-0.01-0.09 0-0.19 0-0.28zm299.93 29.09c-0.56 37.61-6.38 76.61-8.28 85.47-3.2 14.94-5.12 33.38-5.12 33.38l1.53-2.22c0.88-6.31 2.08-14.1 3.59-21.16 2.07-9.66 8.77-55.04 8.28-95.47z"/>
    <path id="path10367" style="fill-rule:evenodd;stroke:url(#linearGradient11344);stroke-width:2;fill:#56627f" d="m189.92 298.34c1.88-4.36 4.62-17.11 8.04-26.35s15.57-32.34 17.28-35.59 5.3-16.59 2.57-22.75c-2.74-6.16-5.82-7.7-13.01-3.94-7.18 3.77-24.46 13.35-40.03 34.05-7.82 10.4-19 30.97-21.56 38.33-2.57 7.35-6.5 18.47-4.45 23.78 2.05 5.3 0.58 8.11 10.44 7.18 10.95-1.02 21.73-2.39 31.65-4.1 9.4-1.62 7.18-6.25 9.07-10.61z"/>
  </g>
  <g id="layer2" transform="translate(-43.4 -149.07)">
    <path id="path2242" style="fill-rule:evenodd;stroke:#550000;stroke-width:3;fill:#960000" d="m302.25 466.8l180.32 18.71s10.89-69.24 14.14-118.35c2.42-36.67-15.89-67.69-20.19-78.14s-20.66-40.84-30.23-56.6c-8.17-13.46-22.32-39.65-55.01-46.54-29.92-6.31-58.7-2.05-58.7-2.05l-30.33 282.97z"/>
    <path id="path3279" style="fill-rule:evenodd;fill:url(#linearGradient3287)" d="m305.79 461.85l173.75 18.19s10.5-67.3 13.63-115.05c2.33-35.63-15.31-65.79-19.45-75.95-4.15-10.16-19.91-39.69-29.13-55.02-7.87-13.08-20.11-35.36-51.61-42.06-28.83-6.14-57.96-3.05-57.96-3.05l-29.23 272.94z"/>
    <path id="path2244" style="fill-rule:evenodd;stroke:#bab7c7;stroke-width:3;fill:url(#linearGradient3301)" d="m326.19 289.07c0.33-4.32 9.04-75.3 9.33-79.8 0.37-5.79 5.4-15.37 16.27-15.05 8.46 0.25 32.63 1.78 47.45 8 14.58 6.11 28.61 17.8 38.96 37.38 10.58 20.03 19.86 34.48 19.67 41.97-0.19 7.5-3.91 24.21-17.59 24.02-13.68-0.18-88.81 0.79-102.86 0.23-14.05-0.57-11.79-14.51-11.23-16.75z"/>
    <path id="path3288" style="fill-rule:evenodd;fill:url(#linearGradient3298)" d="m328.66 243.62l-0.99 4.21 2.67 0.42 0.14-2.67 108.71-2.24 1.26 2.81 3.09-0.14s-2.11-4.77-2.67-4.77-111.79 2.66-112.21 2.38z"/>
    <path id="path2246" style="fill-rule:evenodd;stroke:url(#linearGradient3286);stroke-width:.2;fill:url(#radialGradient3266)" d="m328.66 242.4l-0.99 4.21 2.67 0.42 0.14-2.66 108.71-2.25 1.26 2.81 3.09-0.14s-2.11-4.77-2.67-4.77-111.79 2.66-112.21 2.38z"/>
    <path id="path3235" style="stroke:url(#linearGradient3277);stroke-linecap:round;stroke-width:.35961;fill:url(#radialGradient3300)" d="m334.47 328.55c0 3.75-2.71 6.79-6.06 6.79s-6.06-3.04-6.05-6.79c-0.01-3.74 2.7-6.78 6.05-6.78s6.06 3.04 6.06 6.78z" transform="matrix(.93956 0 0 .93471 18.873 20.507)"/>
    <path id="path3221" style="fill-rule:evenodd;fill:url(#linearGradient3229)" d="m319.53 318.04l165.89-0.86s0.53 1.06 0.53 2.12 0.17 1.86 0.17 1.86l-167 0.55 0.41-3.67z"/>
    <path id="path3237" style="fill:url(#linearGradient3245)" d="m334.47 328.55c0 3.75-2.71 6.79-6.06 6.79s-6.06-3.04-6.05-6.79c-0.01-3.74 2.7-6.78 6.05-6.78s6.06 3.04 6.06 6.78z" transform="matrix(1.3075 0 0 .29320 -104.42 230.33)"/>
    <path id="path3313" style="stroke:url(#linearGradient3322);fill:none" d="m327.15 288.5c0.31-4.26 8.85-74.2 9.13-78.64 0.37-5.7 5.3-15.14 15.93-14.82 8.29 0.24 31.96 1.75 46.49 7.88 14.28 6.02 28.01 17.54 38.15 36.84 10.37 19.73 19.45 33.97 19.27 41.35-0.18 7.39-3.84 23.86-17.23 23.67-13.4-0.18-86.98 0.78-100.75 0.22-13.76-0.55-11.54-14.29-10.99-16.5z"/>
  </g>
  <g id="layer4" transform="translate(-43.4 -149.07)">
    <path id="path3270" style="fill-rule:evenodd;stroke:#550000;stroke-width:2;fill:#800000" d="m298.41 467.02l-96.6-10.2s-9.92-96.11-9.27-116.63c0.64-20.45 3.48-63.54 24.55-95.17 17.26-25.92 41.28-46.62 73-55.85 17.39-5.06 37.05-5.51 37.05-5.51l-28.73 283.36z"/>
    <path id="path2248" style="fill-rule:evenodd;fill:url(#linearGradient3256)" d="m298.13 462.88l-94.95-9.48s-8.55-92.35-7.91-112.87c0.64-20.45 3.14-61.48 24.21-93.12 17.26-25.92 39.23-44.56 70.95-53.79 17.4-5.06 36.37-5.63 36.37-5.63l-28.67 274.89z"/>
    <path id="path2250" style="fill-rule:evenodd;stroke:url(#linearGradient3230);stroke-width:2;fill:#515d7b" d="m311.88 291.71c-0.87 3.84-1.22 14.14-12.56 14.66-11.35 0.53-79.45 2.38-83.46 2.03-4.02-0.35-12.71-1.68-12.53-12.67 0.17-11 22.21-55.28 36.89-67.86 15.4-13.2 41.82-30.52 68.87-31.1 14.61-0.32 12.39 12.04 12.39 12.04s-8.72 79.06-9.6 82.9z"/>
    <path id="path3232" style="fill-rule:evenodd;fill:url(#linearGradient3234)" d="m196.71 320.39l115.84-2.93s-0.24 1.16-0.24 2.22-0.36 1.86-0.36 1.86l-116.03 2.04 0.79-3.19z"/>
    <path id="path3236" style="stroke:url(#linearGradient3277);stroke-linecap:round;stroke-width:.35961;fill:url(#radialGradient3300)" d="m334.47 328.55c0 3.75-2.71 6.79-6.06 6.79s-6.06-3.04-6.05-6.79c-0.01-3.74 2.7-6.78 6.05-6.78s6.06 3.04 6.06 6.78z" transform="matrix(.93956 0 0 .93471 -107.9 22.41)"/>
    <path id="path3238" style="fill:url(#linearGradient3245)" d="m334.47 328.55c0 3.75-2.71 6.79-6.06 6.79s-6.06-3.04-6.05-6.79c-0.01-3.74 2.7-6.78 6.05-6.78s6.06 3.04 6.06 6.78z" transform="matrix(1.3075 0 0 .29320 -231.2 232.23)"/>
  </g>
  <g id="layer5" transform="translate(-43.4 -149.07)">
    <path id="path3332" style="fill-rule:evenodd;fill:url(#linearGradient3340)" d="m200.64 456.47s-0.7-2.46-2.81 1.06-1.06 10.21 1.41 11.97c2.46 1.76 14.08 2.46 14.08 2.46l266.11 28.87s7.75-2.12 5.99-6.69c-1.76-4.58-3.87-8.1-3.87-8.1l-280.91-29.57z"/>
    <path id="path3281" style="fill-rule:evenodd;fill:url(#linearGradient3309)" d="m327.52 182.7l-30.27 285.33h5.44l29.82-285.65-4.99 0.32z"/>
    <path id="path3321" style="fill-rule:evenodd;fill:url(#linearGradient3330)" d="m297.26 466.66s1.88 1.49 3.59 1.3 1.91-1 1.91-1 1.2 0.52 2.08 1.82c0.87 1.31 0.36 2.78 0.36 2.78s-0.25 0.63-3.68 1.01-6.09-0.38-7.42-1.33c-1.34-0.95-1.3-2.4-0.19-3.24 1.4-1.05 2.88-1.19 3.35-1.34z"/>
    <path id="path3351" style="fill-rule:evenodd;fill:url(#linearGradient3359)" d="m327.52 182.7l-30.27 285.33h5.44l29.82-285.65-4.99 0.32z"/>
  </g>
  <g id="layer7" transform="translate(-43.4 -149.07)">
    <path id="path2532" style="fill-rule:evenodd;fill:#aa0000" d="m56.478 450.59s33.426 9.27 58.302 12.55c38.02 4.98 82.23 6.49 82.23 6.49s-2.64-52.03-4.92-69.75c-4.28-32.99-17.79-60.82-37.91-59.84-27.57 1.33-56.731 22.2-73.66 51.77-16.975 29.65-19.445 47.18-19.445 47.18l-2.408 0.65-2.189 10.95z"/>
    <path id="path3503" style="fill-rule:evenodd;fill:#ffffff" d="m60.094 439.12l-0.993 0.62-0.373 2.15s30.596 8.52 59.362 11.95c21.66 2.59 71 6.19 71 6.19l0.22-3s-49.4-3.59-70.84-6.15c-28.443-3.4-58.376-11.76-58.376-11.76z"/>
    <path id="path4478" style="fill-rule:evenodd;fill:url(#linearGradient6442)" d="m191.12 394.85s-3.4 1.49-5.73 1.98c-5.06 1.09-6.24-0.07-7.15 1.38-0.49 0.79 0.32 14.04 0.12 26.28-0.17 10.08-1.36 19.44-1.64 20.89-0.56 2.9 2.14 6.85-4.57 6.97-12.1 0.21-14.88 2-17.96 4.54s2.63 3.61 4.72 4.71c3.8 2.02 4.13 6.43 4.13 6.43l34.4 1.75s-2.43-31.94-2.61-40.1c-0.18-8.17-3.52-34.47-3.71-34.83z"/>
    <path id="path7427" style="fill-rule:evenodd;fill:url(#radialGradient7443)" d="m56.478 450.59s33.426 9.27 58.302 12.55c38.02 4.98 82.23 6.49 82.23 6.49s-2.64-52.03-4.92-69.75c-4.28-32.99-17.79-60.82-37.91-59.84-27.57 1.33-56.731 22.2-73.66 51.77-16.975 29.65-19.445 47.18-19.445 47.18l-2.408 0.65-2.189 10.95z"/>
    <path id="path6444" style="fill-rule:evenodd;fill:url(#linearGradient6456)" d="m191.12 394.85s-3.37 2.52-5.73 2.88c-2.36 0.37-6.24-0.97-7.15 0.48-0.9 1.45-0.9 43.95-1.52 47.17-0.56 2.9 2.14 6.85-4.57 6.97-12.1 0.21-14.88 2-17.96 4.54s2.63 3.61 4.72 4.71c3.8 2.02 4.13 6.43 4.13 6.43l34.4 1.75s-2.43-31.94-2.61-40.1c-0.18-8.17-3.52-34.47-3.71-34.83z"/>
    <path id="path8416" style="fill-rule:evenodd;fill:url(#radialGradient9393)" d="m191.12 394.85s-3.73 2.52-6.09 2.88c-2.36 0.37-5.88-0.97-6.79 0.48-0.9 1.45-0.9 43.95-1.52 47.17-0.56 2.9 2.14 6.85-4.57 6.97-12.1 0.21-14.88 2-17.96 4.54s2.63 3.61 4.72 4.71c3.8 2.02 4.13 6.43 4.13 6.43l34.4 1.75s-2.43-31.94-2.61-40.1c-0.18-8.17-3.52-34.47-3.71-34.83z"/>
    <path id="path3440" style="fill-rule:evenodd;fill:#8c0000" d="m879.98 377.72s28.94 11.62 46.45 46.39c17.46 34.67 9.19 50.92 9.98 63.84s-18.46 17.93-18.46 17.93l-21.88 0.79-16.09-128.95z"/>
    <path id="path3442" style="stroke:#000000;stroke-linecap:round;fill:#000000" d="m934.47 449.62c0 6.9-1.6 12.5-3.57 12.5-1.98 0-3.58-5.6-3.58-12.5s1.6-12.5 3.58-12.5c1.97 0 3.57 5.6 3.57 12.5z" transform="matrix(1 0 .15623 1 -70.242 0)"/>
    <path id="path3444" style="fill-rule:evenodd;fill:url(#radialGradient3452)" d="m928.43 440.12s4.88 0.19 7.54 3.63c2.66 3.43 3.28 6.59 2.27 8.7-2.41 5.07-7.78 5.17-7.78 5.17s-1.55-0.29-2.51-6.82c-0.97-6.52-0.39-10.87-0.39-10.87l0.87 0.19z"/>
  </g>
  <g id="layer10" transform="translate(-43.4 -149.07)">
    <path id="path17393" style="fill-rule:evenodd;stroke:url(#linearGradient19375);stroke-width:5;fill:#ab0101" d="m504.41 319.97s62.67 7.3 85.83 10.57c23.15 3.28 75.4 15.17 97.15 24.17 21.9 9.06 35.24 14.6 35.24 14.6l-6.54 6.79s-24.16-10.82-44.05-11.58c-19.88-0.75-73.5-3.27-90.61 5.54-17.12 8.81-41.28 28.7-41.28 28.7l-35.74-78.79z"/>
    <path id="path17397" style="fill-rule:evenodd;fill:url(#linearGradient19353)" d="m524.29 322.74s9.06 18.38 12.84 22.4c3.77 4.03 6.8 11.08 21.14 10.07 14.35-1.01 72.24-3.77 97.41 0.25 25.17 4.03 62.93 12.08 62.93 12.08s-44.56-16.86-96.41-27.43-98.41-16.61-97.91-17.37z"/>
    <path id="path17395" style="fill-rule:evenodd;fill:url(#linearGradient18374)" d="m524.54 322.24s10.07 15.86 16.62 19.88c6.54 4.03 38.76 3.78 55.87 5.04 17.12 1.25 74.51 6.79 84.32 9.56 9.82 2.77 26.94 6.29 26.94 6.29s-60.16-23.91-108.24-31.21c-48.07-7.3-75.76-9.31-75.51-9.56z"/>
  </g>
  <g id="layer19" transform="translate(-43.4 -149.07)">
    <path id="path3473" style="fill-rule:evenodd;fill:#b20000" d="m759.61 345.46s-20.59-0.41-29.94 3.95c-9.36 4.37-12.65 10.93-12.89 16.43-0.25 5.66 0.41 9.57 6.44 13.1 6.03 3.54 25.16 11.85 25.16 11.85l8.74-1.45 2.49-43.88z"/>
    <path id="path3475" style="fill-rule:evenodd;fill:#f10000;fill-opacity:.29352" d="m756.25 345.47c-6.23 0.09-19.58 0.66-26.59 3.94-9.36 4.36-12.64 10.93-12.88 16.43-0.07 1.64-0.06 3.13 0.13 4.5 0.71-5.17 4.18-11 12.75-15 9.12-4.25 28.62-3.98 29.62-3.96l0.34-5.91s-1.29-0.03-3.37 0z"/>
    <path id="path3477" style="fill-rule:evenodd;stroke:#eff2f8;stroke-width:3;fill:#c1cade" d="m773.14 389.27c4.96-0.4 10.72-0.6 11.12-9.94s0.4-24.25-0.79-27.83c-1.2-3.58-5.96-4.37-13.91-4.77s-10.53-1.59-16.49-0.79c-5.96 0.79-5.17 6.16-5.56 10.73-0.4 4.57-1.05 28.17-0.45 31.75 0.59 3.58 21.11 1.25 26.08 0.85z"/>
    <path id="path3479" style="fill-rule:evenodd;fill:#e4eaf6" d="m749.39 367.86l22.94 0.72s9.08 7.88 7.88 11.23c-1.19 3.34-2.87 7.16-11.47 6.68-8.6-0.47-12.18 0.96-15.52-4.06-3.35-5.01-4.3-14.81-3.83-14.57z"/>
    <path id="path3481" style="fill-rule:evenodd;fill:#b20000" d="m759.61 345.46s-20.59-0.41-29.94 3.95c-9.36 4.37-12.65 10.93-12.89 16.43-0.25 5.66 0.41 9.57 6.44 13.1 6.03 3.54 25.16 11.85 25.16 11.85l8.74-1.45 2.49-43.88z"/>
    <path id="path3483" style="fill-rule:evenodd;fill:#f10000;fill-opacity:.29352" d="m756.25 345.47c-6.23 0.09-19.58 0.66-26.59 3.94-9.36 4.36-12.64 10.93-12.88 16.43-0.07 1.64-0.06 3.13 0.13 4.5 0.71-5.17 4.18-11 12.75-15 9.12-4.25 28.62-3.98 29.62-3.96l0.34-5.91s-1.29-0.03-3.37 0z"/>
    <path id="path3485" style="fill-rule:evenodd;stroke:#eff2f8;stroke-width:3;fill:#c1cade" d="m773.14 389.27c4.96-0.4 10.72-0.6 11.12-9.94s0.4-24.25-0.79-27.83c-1.2-3.58-5.96-4.37-13.91-4.77s-10.53-1.59-16.49-0.79c-5.96 0.79-5.17 6.16-5.56 10.73-0.4 4.57-1.05 28.17-0.45 31.75 0.59 3.58 21.11 1.25 26.08 0.85z"/>
    <path id="path3487" style="fill-rule:evenodd;fill:#e4eaf6" d="m749.39 367.86l22.94 0.72s9.08 7.88 7.88 11.23c-1.19 3.34-2.87 7.16-11.47 6.68-8.6-0.47-12.18 0.96-15.52-4.06-3.35-5.01-4.3-14.81-3.83-14.57z"/>
    <path id="path3489" style="fill-rule:evenodd;fill:#b20000" d="m759.61 345.46s-20.59-0.41-29.94 3.95c-9.36 4.37-12.65 10.93-12.89 16.43-0.25 5.66 0.41 9.57 6.44 13.1 6.03 3.54 25.16 11.85 25.16 11.85l8.74-1.45 2.49-43.88z"/>
    <path id="path3491" style="fill-rule:evenodd;fill:#f10000;fill-opacity:.29352" d="m756.25 345.47c-6.23 0.09-19.58 0.66-26.59 3.94-9.36 4.36-12.64 10.93-12.88 16.43-0.07 1.64-0.06 3.13 0.13 4.5 0.71-5.17 4.18-11 12.75-15 9.12-4.25 28.62-3.98 29.62-3.96l0.34-5.91s-1.29-0.03-3.37 0z"/>
    <path id="path3493" style="fill-rule:evenodd;stroke:#eff2f8;stroke-width:3;fill:#c1cade" d="m773.14 389.27c4.96-0.4 10.72-0.6 11.12-9.94s0.4-24.25-0.79-27.83c-1.2-3.58-5.96-4.37-13.91-4.77s-10.53-1.59-16.49-0.79c-5.96 0.79-5.17 6.16-5.56 10.73-0.4 4.57-1.05 28.17-0.45 31.75 0.59 3.58 21.11 1.25 26.08 0.85z"/>
    <path id="path3495" style="fill-rule:evenodd;fill:#e4eaf6" d="m749.39 367.86l22.94 0.72s9.08 7.88 7.88 11.23c-1.19 3.34-2.87 7.16-11.47 6.68-8.6-0.47-12.18 0.96-15.52-4.06-3.35-5.01-4.3-14.81-3.83-14.57z"/>
    <path id="path3497" style="fill-rule:evenodd;fill:#880000" d="m759.61 345.46s-20.59-0.41-29.94 3.95c-9.36 4.37-12.65 10.93-12.89 16.43-0.25 5.66 0.41 9.57 6.44 13.1 6.03 3.54 25.16 11.85 25.16 11.85l8.74-1.45 2.49-43.88z"/>
    <path id="path3499" style="fill-rule:evenodd;stroke:#eff2f8;stroke-width:3;fill:#c1cade" d="m773.14 389.27c4.96-0.4 10.72-0.6 11.12-9.94s0.4-24.25-0.79-27.83c-1.2-3.58-5.96-4.37-13.91-4.77s-10.53-1.59-16.49-0.79c-5.96 0.79-5.17 6.16-5.56 10.73-0.4 4.57-1.05 28.17-0.45 31.75 0.59 3.58 21.11 1.25 26.08 0.85z"/>
    <path id="path3501" style="fill-rule:evenodd;fill:#e4eaf6" d="m749.39 367.86l22.94 0.72s9.08 7.88 7.88 11.23c-1.19 3.34-2.87 7.16-11.47 6.68-8.6-0.47-12.18 0.96-15.52-4.06-3.35-5.01-4.3-14.81-3.83-14.57z"/>
    <path id="path4473" style="fill-rule:evenodd;fill:#b20000" d="m777.78 345.71s-29.22-0.45-42.5 4.3c-13.29 4.74-17.96 11.87-18.3 17.84-0.36 6.16 0.59 10.39 9.15 14.23 8.56 3.85 35.71 12.88 35.71 12.88l12.4-1.58 3.54-47.67z"/>
    <path id="path4475" style="fill-rule:evenodd;fill:#c00000;fill-opacity:.97952" d="m756.25 345.47c-6.23 0.09-19.58 0.66-26.59 3.94-9.36 4.36-12.64 10.93-12.88 16.43-0.07 1.64-0.06 3.13 0.13 4.5 0.71-5.17 4.18-11 12.75-15 9.12-4.25 28.62-3.98 29.62-3.96l0.34-5.91s-1.29-0.03-3.37 0z"/>
    <path id="path4477" style="fill-rule:evenodd;stroke:#eff2f8;stroke-width:3;fill:#c1cade" d="m773.14 389.27c4.96-0.4 10.72-0.6 11.12-9.94s0.4-24.25-0.79-27.83c-1.2-3.58-5.96-4.37-13.91-4.77s-10.53-1.59-16.49-0.79c-5.96 0.79-5.17 6.16-5.56 10.73-0.4 4.57-1.05 28.17-0.45 31.75 0.59 3.58 21.11 1.25 26.08 0.85z"/>
    <path id="path4479" style="fill-rule:evenodd;fill:#e4eaf6" d="m749.39 367.86l22.94 0.72s9.08 7.88 7.88 11.23c-1.19 3.34-2.87 7.16-11.47 6.68-8.6-0.47-12.18 0.96-15.52-4.06-3.35-5.01-4.3-14.81-3.83-14.57z"/>
    <path id="path4481" style="fill-rule:evenodd;fill:#b20000" d="m925.37 350.33s-25.6-0.4-37.24 3.75-15.74 10.38-16.04 15.6c-0.31 5.38 0.52 9.08 8.02 12.44s19.18 7.7 19.18 7.7l10.86-1.39 15.22-38.1z"/>
    <path id="path4483" style="fill-rule:evenodd;fill:#c00000;fill-opacity:.97952" d="m906.5 350.12c-5.45 0.07-17.15 0.57-23.3 3.44-8.2 3.81-11.07 9.56-11.28 14.37-0.06 1.43-0.05 2.73 0.11 3.93 0.63-4.53 3.67-9.62 11.17-13.11 7.99-3.72 25.08-3.49 25.96-3.47l0.3-5.16s-1.14-0.03-2.96 0z"/>
    <path id="path4485" style="fill-rule:evenodd;stroke:#eff2f8;stroke-width:3;fill:#c1cade" d="m921.3 388.4c4.35-0.34 9.4-0.52 9.75-8.68 0.34-8.17 0.34-21.2-0.7-24.33s-5.22-3.82-12.19-4.17c-6.96-0.35-9.22-1.39-14.44-0.7-5.23 0.7-4.53 5.39-4.88 9.39-0.35 3.99-0.91 24.62-0.39 27.75s18.5 1.09 22.85 0.74z"/>
    <path id="path4487" style="fill-rule:evenodd;fill:#e4eaf6" d="m900.5 369.69l20.09 0.63s7.95 6.89 6.91 9.81c-1.05 2.92-2.51 6.26-10.05 5.85-7.53-0.42-10.67 0.83-13.6-3.55-2.93-4.39-3.77-12.95-3.35-12.74z"/>
  </g>
  <g id="layer20" transform="translate(-43.4 -149.07)">
    <path id="path5463" style="stroke-opacity:.67577;fill-rule:evenodd;stroke:#353535;stroke-width:1px;fill:#aa0000" d="m493.28 306.72l179.87-1.96-62.02-94.02-172.7-17.96s23.51 44.08 30.36 60.72c6.86 16.65 24.81 54.2 24.49 53.22z"/>
    <path id="path6440" style="stroke-opacity:.67577;stroke:#353535;stroke-width:1px;fill:none" d="m489.04 288.05c0 3.63 2.42 12.26 8.03 12.72 5.6 0.45 163.11 8.93 168.26 8.63s2.12-8.18 0.15-10.15-2.42-2.72-2.42-2.72"/>
    <path id="path5465" style="fill-rule:evenodd;fill:#dfc8d7" d="m489.23 284.86l-0.19 3 175.87 10.33-1.48-3.15-174.2-10.18z"/>
    <path id="path6442" style="fill-rule:evenodd;stroke:#000000;stroke-width:1px;fill:#a0abcf" d="m597.04 221.6c15.48 0.6 18.69 6.23 21.91 11.65 3.21 5.43 25.72 37.38 28.13 42.81 2.41 5.42 4.22 6.89-8.84 6.83-42.57-0.2-124.19-5.02-141.48-7.43-8.22-1.15-18.28-4.83-23.51-17.49-5.22-12.66-17.28-37.17-19.69-42.6s-8.84-10.25 8.24-8.44 136.05 15.07 135.24 14.67z"/>
    <path id="path6445" style="stroke:#000000;stroke-width:2;fill:none" d="m545.6 275.66s15.37-6.03 21.9-7.04c6.53-1 16.58-3.31 16.58-3.31"/>
    <path id="path6449" style="fill-rule:evenodd;fill:#4d4d4d" d="m538.28 284.8c2.22-2.31 15.1-11.76 20.2-14.37s9.64-6.33 10.93-6.63 2.65 0.8 0.89 1.71c-1.76 0.9-18.73 13.56-20.94 15.67s-4.83 4.12-7.54 6.13c-2.72 2.01-5.76-0.2-3.54-2.51z"/>
    <path id="path6447" style="fill-rule:evenodd;fill:#e9dee9" d="m537.26 284.8c2.33-2.31 15.67-11.76 20.9-14.37 5.22-2.61 9.94-6.33 11.25-6.63s2.61 0.8 0.8 1.71c-1.8 0.9-19.39 13.56-21.7 15.67s-5.02 4.12-7.84 6.13c-2.81 2.01-5.75-0.2-3.41-2.51z"/>
    <path id="path6451" style="stroke:#000000;stroke-width:2;fill:none" d="m609.92 279.57s14.74-6.03 21.17-7.04c6.43-1 16.23-3.31 16.23-3.31"/>
    <path id="path6453" style="fill-rule:evenodd;fill:#4d4d4d" d="m603.56 288.71c1.98-2.31 13.88-11.76 18.7-14.37s8.98-6.33 10.24-6.63 2.73 0.8 1.06 1.71c-1.67 0.9-17.31 13.56-19.3 15.67s-4.39 4.12-6.9 6.13c-2.5 2.01-5.78-0.2-3.8-2.51z"/>
    <path id="path6455" style="fill-rule:evenodd;fill:#e9dee9" d="m602.54 288.71c2.09-2.31 14.44-11.76 19.39-14.37 4.96-2.61 9.29-6.33 10.56-6.63 1.28-0.3 2.7 0.8 0.99 1.71-1.72 0.9-17.98 13.56-20.07 15.67s-4.59 4.12-7.19 6.13-5.77-0.2-3.68-2.51z"/>
  </g>
  <g id="layer11" transform="translate(-43.4 -149.07)">
    <path id="path19380" style="fill-rule:evenodd;fill:url(#linearGradient21331)" d="m501.25 308.16l4.97 10.81s81.76 10.16 101.12 14.22c19.37 4.05 91.33 28.64 103.04 34.5 11.7 5.85 54.93 35.77 67.09 52.43 12.16 16.67 30.4 47.77 34 58.13s11.81 28.99 39.28 27.19 51.85-3.34 59.51-8.29c-7.66 4.95-55.95 5.08-61.98-5.77-5.66-10.18-29.34-91.96-100.25-131.85-87.19-49.04-246.78-51.37-246.78-51.37z"/>
    <path id="path20351" style="fill-rule:evenodd;fill:url(#radialGradient21343)" d="m501.26 308.17s159.59 2.31 246.78 51.36c70.91 39.88 94.2 121.9 100.25 131.84 5.06 8.33 32.38 14.4 45.43 12.68 6.58-0.87 18.28-3.97 18.73-10.84 0.6-9.1 1.19-24.8-1.42-43.46-2.85-20.47-3.44-54.82-42.27-90.69-21.84-20.18-67.33-41.17-104.93-48.19-30.31-5.65-93.68-8.1-93.68-8.1s-67.1-1.35-89.17-0.45-81.52 4.5-79.72 5.85z"/>
    <path id="path21346" style="fill-rule:evenodd;fill:url(#radialGradient21354)" d="m501.26 308.17s159.59 2.31 246.78 51.36c70.91 39.88 94.59 121.67 100.25 131.84 6.03 10.86 54.12 4.63 61.78-0.32 7.65-4.96 3.57-22.64 0.96-41.3-2.85-20.47-3.44-54.82-42.27-90.69-21.84-20.18-67.33-41.17-104.93-48.19-30.31-5.65-93.68-8.1-93.68-8.1s-67.1-1.35-89.17-0.45-81.52 4.5-79.72 5.85z"/>
    <path id="path22327" style="fill-rule:evenodd;fill:url(#linearGradient22335)" d="m501.26 308.17s159.59 2.31 246.78 51.36c70.91 39.88 94.59 121.67 100.25 131.84 6.03 10.86 64.18 6 64.02-3.48-0.16-9.12 1.33-19.48-1.28-38.14-2.85-20.47-3.44-54.82-42.27-90.69-21.84-20.18-67.33-41.17-104.93-48.19-30.31-5.65-93.68-8.1-93.68-8.1s-67.1-1.35-89.17-0.45-81.52 4.5-79.72 5.85z"/>
  </g>
  <g id="layer12" transform="translate(-43.4 -149.07)">
    <path id="path22338" style="fill-rule:evenodd;fill:#9191ab" d="m846.69 465.26c2.94-0.19 32.15-1.66 36.37-1.84 4.23-0.18 24.44-0.37 26.09-1.65 1.65-1.29-2.94-36.19-4.41-41.34-1.27-4.44-8.82-18-27.55-18.55-18.74-0.55-39.32 7.53-42.81 9.92s-3.3 10.84-2.75 13.23c0.55 2.38 4.77 28.1 5.51 31.22 0.73 3.13 6.79 9.18 9.55 9.01z"/>
    <path id="path24292" style="fill-rule:evenodd;fill:#cdcdd9" d="m873.5 403.38c-16.88 0.42-34.29 7.3-37.41 9.43-3.32 2.28-3.15 10.35-2.62 12.63 0.52 2.27 71.06 0.52 69.65-4.38-1.21-4.24-8.39-17.16-26.24-17.68-1.12-0.04-2.25-0.03-3.38 0zm2.88 4.09c14.87 0.13 24.52 9.85 25.68 13.94 1.35 4.72-69.04 0.6-68.09-1.44 3.46-7.48 29.47-12.62 42.41-12.5z"/>
    <path id="path22340" style="fill-rule:evenodd;stroke:#000000;stroke-width:1px;fill:#000000" d="m849.84 461.03c5.15 0.21 27.88-1.43 31.54-1.59 3.67-0.16 21.19-0.32 22.62-1.43 1.44-1.12-3.1-29.53-4.37-33.99-1.1-3.86-10.22-13.02-24.26-13.14-12.21-0.11-36.79 4.73-40.06 11.79-0.89 1.93 4.51 28.04 5.15 30.74 0.63 2.71 4.05 7.4 9.38 7.62z"/>
    <path id="path22342" style="fill-rule:evenodd;fill:#9191ab" d="m827.71 420.14c6.1 1.42 21.64 4.97 44.56 5.36 12.86 0.22 30.03-0.79 33.46-4.72 1.08-1.25 1.35-4.76-2.46-3.47-4.85 1.64-21.16 3.06-27.71 3.01-5.73-0.04-43.03-4.52-47.03-4.96-3.29-0.36-3.02 4.78-0.82 4.78z"/>
    <path id="path23313" style="fill-rule:evenodd;fill:#cdcdd9" d="m827.71 418.55c6.1 0.95 21.64 3.33 44.56 3.59 12.86 0.15 30.03-0.53 33.46-3.16 1.08-0.83 1.04-2.3-2.67-1.1-7.88 2.53-23.68 2.91-30.23 2.66-21.24-0.82-39.65-4.46-43.66-4.75-3.29-0.25-3.66 2.76-1.46 2.76z"/>
    <path id="path23315" style="fill-rule:evenodd;fill:#9191ab" d="m831.8 434.11c6.09 1.26 21.64 4.39 44.55 4.17 12.86-0.13 30.04-1.6 33.47-5.63 1.08-1.27 1.34-4.79-2.47-3.4-4.85 1.77-21.16 3.63-27.71 3.76-5.72 0.11-43.03-3.36-47.03-3.7-3.29-0.27-3.02 4.86-0.81 4.8z"/>
    <path id="path23317" style="fill-rule:evenodd;fill:#cdcdd9" d="m831.8 432.52c6.09 0.79 21.64 2.75 44.55 2.39 12.86-0.2 30.04-1.34 33.47-4.06 1.08-0.86 1.04-2.32-2.68-1.03-7.87 2.75-23.68 3.55-30.23 3.48-21.24-0.25-39.65-3.39-43.65-3.58-3.3-0.16-3.67 2.86-1.46 2.8z"/>
    <path id="path23319" style="fill-rule:evenodd;fill:#9191ab" d="m833.97 447.85c6.1 1.23 21.64 4.32 44.56 4.01 12.86-0.17 30.03-1.71 33.46-5.75 1.08-1.27 1.35-4.79-2.46-3.39-4.85 1.79-21.16 3.7-27.71 3.85-5.73 0.14-43.03-3.2-47.03-3.52-3.29-0.27-3.02 4.87-0.82 4.8z"/>
    <path id="path23321" style="fill-rule:evenodd;fill:#cdcdd9" d="m833.97 446.26c6.1 0.77 21.64 2.67 44.56 2.23 12.86-0.24 30.03-1.44 33.46-4.18 1.08-0.86 1.04-2.32-2.67-1.02-7.88 2.78-23.68 3.64-30.23 3.59-21.24-0.17-39.65-3.25-43.66-3.43-3.29-0.14-3.66 2.88-1.46 2.81z"/>
  </g>
  <g id="layer9" transform="translate(-43.4 -149.07)">
    <path id="path17390" style="fill-rule:evenodd;fill:#800000" d="m483.54 488.45s10.85-16.51 24.08-33.06c13.54-16.93 48.24-82.37 92.18-73.82 13.33 2.59 29.4 0.19 63.17 38.28 17.44 19.68 96.78-28.6 48.53-45.73-71.62-25.43-133.47-1.52-149.65 7.69-25.17 14.34-49.76 56.02-54.19 63.99-10.93 19.67-22.02 34.65-22.02 36.4s-1.4 6.25-2.1 6.25z"/>
    <path id="path13388" style="fill-rule:evenodd;fill:#aa0000" d="m483.54 484.45s11.19-15.73 24.12-32.52c12.94-16.78 42.31-75.89 90.56-70.27 21.58 2.51 34.96 4.89 58.38 32.17 17.14 19.94 25.53 49.29 34.62 64.68 9.09 15.38 27.62 35.66 46.5 37.06s86.01-1.75 86.01-1.75-8.66-29.75-13.29-41.96c-15.38-40.55-50.69-84.61-98.94-101.74-71.62-25.43-119.59-9.04-149.65 7.69-25.31 14.09-49.76 56.02-54.19 63.99-10.93 19.67-22.02 34.65-22.02 36.4s-1.4 6.25-2.1 6.25z"/>
    <path id="path16347" style="filter:url(#filter17386);fill-rule:evenodd;fill:#ffffff;fill-opacity:.14676" d="m488.84 476.62s11.75-19.37 23.07-35.4c27.59-39.08 47.17-70.51 91.85-65.31 19.99 2.32 33.17 4.08 57.27 27.18 17.58 16.85 67.79 72.62 106.75 48.1 14.83-9.35-18.48-66.33-63.17-82.2-66.32-23.55-123.21-0.66-138.59 7.13-27.38 13.85-50.73 53.61-54.83 61-10.13 18.22-20.4 32.09-20.4 33.71s-1.3 5.79-1.95 5.79z"/>
    <path id="path14363" style="fill:url(#radialGradient15370)" d="m754.33 456.69c0.01 8.18-5.71 14.81-12.76 14.81-7.06 0-12.78-6.63-12.77-14.81-0.01-8.17 5.71-14.8 12.77-14.8 7.05 0 12.77 6.63 12.76 14.8z" transform="matrix(1 0 .16530 1 -75.201 0)"/>
    <path id="path14365" style="fill:url(#radialGradient15350)" d="m754.33 456.69c0.01 8.18-5.71 14.81-12.76 14.81-7.06 0-12.78-6.63-12.77-14.81-0.01-8.17 5.71-14.8 12.77-14.8 7.05 0 12.77 6.63 12.76 14.8z" transform="matrix(.84145 0 .13909 .84283 54.341 71.779)"/>
    <path id="path2469" style="fill-rule:evenodd;fill:#2f2a30" d="m516.3 443.18s-18.1 33.77-24.71 45.61c-6.62 11.83-20.2 36.55-23.68 49.08-3.48 12.54-1.39 3.14 0.35-9.74 1.74-12.89 2.09-20.54 6.27-27.16 4.17-6.61 41.43-58.14 41.77-57.79z"/>
  </g>
  <g id="layer15" transform="translate(-43.4 -149.07)">
    <path id="path3455" style="fill-rule:evenodd;stroke:#000000;stroke-width:1px;fill:#000000" d="m765.64 400.15s2.08-2.08 8.53-4.16c6.44-2.08 11.43 1.87 9.98 8.94-1.46 7.07-4.16 11.02-4.16 11.02l-14.35-15.8z"/>
    <path id="path3457" style="fill-rule:evenodd;fill:#73779b" d="m760.65 399.74s15.8 0 18.09 0.83 7.07 8.73-1.04 8.73-17.46-0.62-17.46-0.62l0.41-8.94z"/>
    <path id="path3459" style="fill-rule:evenodd;fill:#25242a" d="m759.2 407.43c-5.2-1.46-4.37-2.5-7.49-8.94-3.12-6.45-5.2-8.11-5.2-8.11l11.02-1.25s-1.25 0.42 0.63 5.41c1.87 4.99 2.63 3.43 4.15 5.4 6.24 8.11-3.11 7.49-3.11 7.49z"/>
    <path id="path3461" style="fill-rule:evenodd;fill:#b20000" d="m777.78 345.71s-29.22-0.45-42.5 4.3c-13.29 4.74-17.96 11.87-18.3 17.84-0.36 6.16 0.59 10.39 9.15 14.23 8.56 3.85 35.71 12.88 35.71 12.88l12.4-1.58 3.54-47.67z"/>
    <path id="path3467" style="fill-rule:evenodd;fill:#c00000;fill-opacity:.97952" d="m756.25 345.47c-6.23 0.09-19.58 0.66-26.59 3.94-9.36 4.36-12.64 10.93-12.88 16.43-0.07 1.64-0.06 3.13 0.13 4.5 0.71-5.17 4.18-11 12.75-15 9.12-4.25 28.62-3.98 29.62-3.96l0.34-5.91s-1.29-0.03-3.37 0z"/>
    <path id="path3463" style="fill-rule:evenodd;stroke:#eff2f8;stroke-width:3;fill:#c1cade" d="m773.14 389.27c4.96-0.4 10.72-0.6 11.12-9.94s0.4-24.25-0.79-27.83c-1.2-3.58-5.96-4.37-13.91-4.77s-10.53-1.59-16.49-0.79c-5.96 0.79-5.17 6.16-5.56 10.73-0.4 4.57-1.05 28.17-0.45 31.75 0.59 3.58 21.11 1.25 26.08 0.85z"/>
    <path id="path3465" style="fill-rule:evenodd;fill:#e4eaf6" d="m749.39 367.86l22.94 0.72s9.08 7.88 7.88 11.23c-1.19 3.34-2.87 7.16-11.47 6.68-8.6-0.47-12.18 0.96-15.52-4.06-3.35-5.01-4.3-14.81-3.83-14.57z"/>
  </g>
  <g id="layer13" transform="translate(-43.4 -149.07)">
    <path id="path30140" style="fill-rule:evenodd;fill:#171929" d="m744.73 516.04l5.13 12.96 198.31-8.74 0.9-18.39-204.34 14.17z"/>
    <path id="path24298" style="fill-rule:evenodd;fill:#66657d" d="m746.58 518.39s69.96-2.47 80.05-2.88c10.08-0.42 75.31-4.12 81.49-4.33 6.17-0.2 30.25-1.85 34.16-2.88s1.23-7.2 1.23-7.2l-24.69-5.14s-3.07 1-13.98 5.15c-12.57 4.78-44.14-2.13-64.21 2.45-16.53 3.77-45.7 4.03-58.45 4.54-12.37 0.49-31.28 2.88-34.98 3.5-3.71 0.61-3.71 6.17-0.62 6.79z"/>
    <path id="path26238" style="fill-rule:evenodd;fill:url(#radialGradient27215)" d="m746.58 518.39s69.96-2.47 80.05-2.88c10.08-0.42 75.31-4.12 81.49-4.33 6.17-0.2 30.25-1.85 34.16-2.88s1.23-7.2 1.23-7.2l-24.69-5.14s-3.07 1-13.98 5.15c-12.57 4.78-44.14-2.13-64.21 2.45-16.53 3.77-45.7 4.03-58.45 4.54-12.37 0.49-31.28 2.88-34.98 3.5-3.71 0.61-3.71 6.17-0.62 6.79z"/>
    <path id="path27217" style="fill-rule:evenodd;fill:url(#radialGradient27219)" d="m746.58 518.39s69.96-2.47 80.05-2.88c10.08-0.42 75.31-4.12 81.49-4.33 6.17-0.2 30.25-1.85 34.16-2.88s1.23-7.2 1.23-7.2l-24.69-5.14s-3.07 1-13.98 5.15c-12.57 4.78-44.14-2.13-64.21 2.45-16.53 3.77-45.7 4.03-58.45 4.54-12.37 0.49-31.28 2.88-34.98 3.5-3.71 0.61-3.71 6.17-0.62 6.79z"/>
    <path id="path27221" style="fill-rule:evenodd;fill:url(#linearGradient30138)" d="m751.61 534.72s70.99-2.26 81.08-2.71c42.45-1.91 103.63-7.73 110.3-9.1 3.96-0.82 6.58-5.31 6.58-5.31s-92.39 5.8-105.14 6.31c-12.37 0.49-89.35 3.06-93.06 3.67-3.7 0.62-2.85 6.52 0.24 7.14z"/>
    <path id="path30143" style="fill-rule:evenodd;stroke:#000000;stroke-width:3;fill:#ffffff" d="m834.33 468.83s25.28 1.12 44.4 0.34c22.2-0.9 34.32-2.22 34.32-2.22l0.86 28.52s-20.15 0.88-33.82 1.71c-16.71 1-44.73 2.73-44.73 2.73l-1.03-31.08z"/>
    <path id="path30146" style="fill-rule:evenodd;fill:#6776a5" d="m806.33 507.12s14.58 0.3 18.83 0.3 4.03 6.74 4.03 10.69c0 3.94 0.13 8.67-2 12.01-2.13 3.35 1.01 2.51 4.35 2.51s7.29-0.91 9.42-3.64c2.12-2.74 0.91-70.77-0.61-73.8-1.52-3.04-2.91-6.93-6.86-7.53-3.95-0.61-4.5 0.32-5.29 4.18-1.56 7.58-2.21 17.43-7.44 28.93s-14.43 26.35-14.43 26.35z"/>
    <path id="path30150" style="fill-rule:evenodd;fill:url(#radialGradient30158)" d="m806.33 507.12s14.58 0.3 18.83 0.3 4.03 6.74 4.03 10.69c0 3.94 0.13 8.67-2 12.01-2.13 3.35 1.01 2.51 4.35 2.51s7.29-0.91 9.42-3.64c2.12-2.74 0.91-70.77-0.61-73.8-1.52-3.04-2.91-6.93-6.86-7.53-3.95-0.61-4.5 0.32-5.29 4.18-1.56 7.58-2.21 17.43-7.44 28.93s-14.43 26.35-14.43 26.35z"/>
    <path id="path30148" style="fill-rule:evenodd;fill:#140c1b" d="m833.2 461.37c-0.11-5.49 6.21-11.22 7.05-0.36 0.84 10.87 2.15 63.76 2.15 63.76l-7.76 0.36s-1.32-62.45-1.44-63.76z"/>
    <path id="path30160" style="fill-rule:evenodd;fill:url(#linearGradient30170)" d="m911.7 500.48s19.42 1.34 23.1 1.34c3.69 0 7.54-0.33 7.7 3.02 0.17 3.34 1.34 12.05 0.17 13.39s-9.37 5.36-9.37 5.36 0.16 1 1.17 1.84c1 0.83 13.56-3.52 15.57-5.03 2.01-1.5 5.19-4.35 5.19-7.7 0-3.34 2.34-56.08 1-58.09s-4.52-6.69-6.7-7.36c-2.17-0.67-3.34-2.01-3.85-0.34-0.5 1.68-8.07 22.5-12.55 30.64-5.82 10.58-18.42 21.59-21.43 22.93z"/>
    <path id="path30162" style="fill-rule:evenodd;fill:#282937" d="m950.04 459.13c0.5-6.86 6.86-10.88 7.03-0.83 0.17 10.04-0.67 58.25-0.67 58.25l-7.2 1.85s1.17-56.09 0.84-59.27z"/>
  </g>
  <g id="layer21" transform="translate(-43.4 -149.07)">
    <path id="path6458" style="fill-rule:evenodd;fill:#7f92bc" d="m176.25 217.72c7.34-4.26 24.85-23.37 53.65-32.97s92.55-13.23 122.63-13.55c29.41-0.31 56.03 4.74 70.4 11.73 13.34 6.49 15.53 9.82 15.53 9.82l173.2 19.36s5.41-3.31 2.21-5.98c-3.2-2.66-5.34 0.8-17.07-5.6s-30.93-12.8-30.93-12.8-28.8-4.53-48.54-6.4c-19.64-1.86-94.93-13.86-125.86-14.93-15.5-0.53-53.59-4.19-120.8 4.53-66.95 8.73-94.42 46.79-94.42 46.79z"/>
    <path id="path7456" style="fill-rule:evenodd;fill:url(#linearGradient7464)" d="m422.93 182.93c13.34 6.49 15.53 9.82 15.53 9.82l173.2 19.36s5.41-3.31 2.21-5.98c-3.2-2.66-5.34 0.8-17.07-5.6s-188.24-24.59-173.87-17.6z"/>
  </g>
  <metadata>
    <rdf:RDF>
      <cc:Work>
        <dc:format>image/svg+xml</dc:format>
        <dc:type rdf:resource="http://purl.org/dc/dcmitype/StillImage"/>
        <cc:license rdf:resource="http://creativecommons.org/licenses/publicdomain/"/>
        <dc:publisher>
          <cc:Agent rdf:about="http://openclipart.org/">
            <dc:title>Openclipart</dc:title>
          </cc:Agent>
        </dc:publisher>
        <dc:title>2cv4 Automobile Car</dc:title>
        <dc:date>2007-08-10T23:56:45</dc:date>
        <dc:description>it's not only a car - it's a passion... ;-)&#13;\n&#13;\nPS: i tried to reduce my "photorealistic style" a little bit - i hope, you like it&#13;\n&#13;\nPPS: Yes, it was another rainy evening :D</dc:description>
        <dc:source>https://openclipart.org/detail/4755/2cv4-by-webmichl-4755</dc:source>
        <dc:creator>
          <cc:Agent>
            <dc:title>webmichl</dc:title>
          </cc:Agent>
        </dc:creator>
        <dc:subject>
          <rdf:Bag>
            <rdf:li>2cv4</rdf:li>
            <rdf:li>car</rdf:li>
            <rdf:li>passion</rdf:li>
            <rdf:li>technic</rdf:li>
          </rdf:Bag>
        </dc:subject>
      </cc:Work>
      <cc:License rdf:about="http://creativecommons.org/licenses/publicdomain/">
        <cc:permits rdf:resource="http://creativecommons.org/ns#Reproduction"/>
        <cc:permits rdf:resource="http://creativecommons.org/ns#Distribution"/>
        <cc:permits rdf:resource="http://creativecommons.org/ns#DerivativeWorks"/>
      </cc:License>
    </rdf:RDF>
  </metadata>
</svg>
